<svg width="36" height="36" viewBox="0 0 36 36" fill="none" xmlns="http://www.w3.org/2000/svg">
<g id="Frame" clip-path="url(#clip0_8775_10529)">
<path id="Vector" d="M18 23.4545C16.5534 23.4545 15.166 22.8799 14.1431 21.8569C13.1201 20.834 12.5455 19.4466 12.5455 18C12.5455 16.5534 13.1201 15.166 14.1431 14.1431C15.166 13.1201 16.5534 12.5455 18 12.5455C19.4466 12.5455 20.834 13.1201 21.8569 14.1431C22.8799 15.166 23.4545 16.5534 23.4545 18C23.4545 19.4466 22.8799 20.834 21.8569 21.8569C20.834 22.8799 19.4466 23.4545 18 23.4545ZM18 21.6364C18.9644 21.6364 19.8893 21.2532 20.5713 20.5713C21.2532 19.8893 21.6364 18.9644 21.6364 18C21.6364 17.0356 21.2532 16.1107 20.5713 15.4287C19.8893 14.7468 18.9644 14.3636 18 14.3636C17.0356 14.3636 16.1107 14.7468 15.4287 15.4287C14.7468 16.1107 14.3636 17.0356 14.3636 18C14.3636 18.9644 14.7468 19.8893 15.4287 20.5713C16.1107 21.2532 17.0356 21.6364 18 21.6364ZM17.0909 8H18.9091V10.7273H17.0909V8ZM17.0909 25.2727H18.9091V28H17.0909V25.2727ZM10.2864 11.5718L11.5718 10.2864L13.5 12.2145L12.2145 13.5L10.2864 11.5727V11.5718ZM22.5 23.7855L23.7855 22.5L25.7136 24.4282L24.4282 25.7136L22.5 23.7855ZM24.4282 10.2855L25.7136 11.5718L23.7855 13.5L22.5 12.2145L24.4282 10.2864V10.2855ZM12.2145 22.5L13.5 23.7855L11.5718 25.7136L10.2864 24.4282L12.2145 22.5ZM28 17.0909V18.9091H25.2727V17.0909H28ZM10.7273 17.0909V18.9091H8V17.0909H10.7273Z" fill="black"/>
</g>
<defs>
<clipPath id="clip0_8775_10529">
<rect width="36" height="36" fill="white"/>
</clipPath>
</defs>
</svg>
