<svg width="64" height="64" viewBox="0 0 64 64" fill="none" xmlns="http://www.w3.org/2000/svg">
<g id="icon/ic_marketing_bullhorn">
<g id="Vector">
<path d="M37 54H35V44.2C35 43.9348 34.8946 43.6805 34.7071 43.4929C34.5196 43.3054 34.2652 43.2 34 43.2C33.7348 43.2 33.4804 43.3054 33.2929 43.4929C33.1054 43.6805 33 43.9348 33 44.2V54H7V34H15.32C15.5852 34 15.8396 33.8947 16.0271 33.7071C16.2146 33.5196 16.32 33.2652 16.32 33C16.32 32.7348 16.2146 32.4805 16.0271 32.2929C15.8396 32.1054 15.5852 32 15.32 32H6C5.73478 32 5.48043 32.1054 5.29289 32.2929C5.10536 32.4805 5 32.7348 5 33V54H3C2.73478 54 2.48043 54.1054 2.29289 54.2929C2.10536 54.4805 2 54.7348 2 55V57C2 58.3261 2.52678 59.5979 3.46447 60.5356C4.40215 61.4732 5.67392 62 7 62H33C34.3261 62 35.5979 61.4732 36.5355 60.5356C37.4732 59.5979 38 58.3261 38 57V55C38 54.7348 37.8946 54.4805 37.7071 54.2929C37.5196 54.1054 37.2652 54 37 54ZM36 57C36 57.7957 35.6839 58.5587 35.1213 59.1213C34.5587 59.684 33.7956 60 33 60H31V59C31 58.7348 30.8946 58.4805 30.7071 58.2929C30.5196 58.1054 30.2652 58 30 58C29.7348 58 29.4804 58.1054 29.2929 58.2929C29.1054 58.4805 29 58.7348 29 59V60H11V59C11 58.7348 10.8946 58.4805 10.7071 58.2929C10.5196 58.1054 10.2652 58 10 58C9.73478 58 9.48043 58.1054 9.29289 58.2929C9.10536 58.4805 9 58.7348 9 59V60H7C6.20435 60 5.44129 59.684 4.87868 59.1213C4.31607 58.5587 4 57.7957 4 57V56H36V57Z" fill="#FFC81A"/>
<path d="M54 8.00003H56C56.2652 8.00003 56.5196 7.89467 56.7071 7.70714C56.8946 7.5196 57 7.26525 57 7.00003C57 6.73482 56.8946 6.48046 56.7071 6.29293C56.5196 6.10539 56.2652 6.00003 56 6.00003H54C53.2043 6.00003 52.4413 6.3161 51.8787 6.87871C51.3161 7.44132 51 8.20438 51 9.00003V10H50C49.7348 10 49.4804 10.1054 49.2929 10.2929C49.1054 10.4805 49 10.7348 49 11C49 11.2652 49.1054 11.5196 49.2929 11.7071C49.4804 11.8947 49.7348 12 50 12H51V15C51 15.2652 51.1054 15.5196 51.2929 15.7071C51.4804 15.8947 51.7348 16 52 16C52.2652 16 52.5196 15.8947 52.7071 15.7071C52.8946 15.5196 53 15.2652 53 15V12H54C54.2652 12 54.5196 11.8947 54.7071 11.7071C54.8946 11.5196 55 11.2652 55 11C55 10.7348 54.8946 10.4805 54.7071 10.2929C54.5196 10.1054 54.2652 10 54 10H53V9.00003C53 8.73482 53.1054 8.48046 53.2929 8.29293C53.4804 8.10539 53.7348 8.00003 54 8.00003Z" fill="#FFC81A"/>
<path d="M59 2.00003H47C46.2043 2.00003 45.4413 2.3161 44.8787 2.87871C44.3161 3.44132 44 4.20438 44 5.00003V7.00003C44 7.26525 44.1054 7.5196 44.2929 7.70714C44.4804 7.89467 44.7348 8.00003 45 8.00003C45.2652 8.00003 45.5196 7.89467 45.7071 7.70714C45.8946 7.5196 46 7.26525 46 7.00003V5.00003C46 4.73482 46.1054 4.48046 46.2929 4.29293C46.4804 4.10539 46.7348 4.00003 47 4.00003H59C59.2652 4.00003 59.5196 4.10539 59.7071 4.29293C59.8946 4.48046 60 4.73482 60 5.00003V17C60 17.2652 59.8946 17.5196 59.7071 17.7071C59.5196 17.8947 59.2652 18 59 18H47C46.7348 18 46.4804 17.8947 46.2929 17.7071C46.1054 17.5196 46 17.2652 46 17V11C46 10.7348 45.8946 10.4805 45.7071 10.2929C45.5196 10.1054 45.2652 10 45 10C44.7348 10 44.4804 10.1054 44.2929 10.2929C44.1054 10.4805 44 10.7348 44 11V17C44 17.7957 44.3161 18.5587 44.8787 19.1214C45.4413 19.684 46.2043 20 47 20H59C59.7957 20 60.5587 19.684 61.1213 19.1214C61.6839 18.5587 62 17.7957 62 17V5.00003C62 4.20438 61.6839 3.44132 61.1213 2.87871C60.5587 2.3161 59.7957 2.00003 59 2.00003Z" fill="#FFC81A"/>
<path d="M49 42C49 42.7912 49.2346 43.5645 49.6741 44.2223C50.1136 44.8801 50.7384 45.3928 51.4693 45.6956C52.2002 45.9983 53.0044 46.0775 53.7804 45.9232C54.5563 45.7688 55.269 45.3879 55.8284 44.8285C56.3878 44.2691 56.7688 43.5563 56.9232 42.7804C57.0775 42.0045 56.9983 41.2002 56.6955 40.4693C56.3928 39.7384 55.8801 39.1137 55.2223 38.6742C54.5645 38.2346 53.7911 38 53 38C51.9391 38 50.9217 38.4215 50.1716 39.1716C49.4214 39.9218 49 40.9392 49 42ZM55 42C55 42.3956 54.8827 42.7823 54.6629 43.1112C54.4432 43.4401 54.1308 43.6964 53.7654 43.8478C53.3999 43.9992 52.9978 44.0388 52.6098 43.9616C52.2219 43.8844 51.8655 43.694 51.5858 43.4143C51.3061 43.1346 51.1156 42.7782 51.0384 42.3902C50.9613 42.0023 51.0009 41.6001 51.1522 41.2347C51.3036 40.8692 51.56 40.5569 51.8889 40.3371C52.2178 40.1173 52.6044 40 53 40C53.5304 40 54.0392 40.2108 54.4142 40.5858C54.7893 40.9609 55 41.4696 55 42Z" fill="#FFC81A"/>
<path d="M59 33H47C46.2043 33 45.4413 33.3161 44.8787 33.8787C44.3161 34.4413 44 35.2044 44 36V48C44 48.7957 44.3161 49.5587 44.8787 50.1213C45.4413 50.684 46.2043 51 47 51H59C59.7957 51 60.5587 50.684 61.1213 50.1213C61.6839 49.5587 62 48.7957 62 48V46C62 45.7348 61.8946 45.4805 61.7071 45.2929C61.5196 45.1054 61.2652 45 61 45C60.7348 45 60.4804 45.1054 60.2929 45.2929C60.1054 45.4805 60 45.7348 60 46V48C60 48.2652 59.8946 48.5196 59.7071 48.7071C59.5196 48.8947 59.2652 49 59 49H47C46.7348 49 46.4804 48.8947 46.2929 48.7071C46.1054 48.5196 46 48.2652 46 48V36C46 35.7348 46.1054 35.4805 46.2929 35.2929C46.4804 35.1054 46.7348 35 47 35H59C59.2652 35 59.5196 35.1054 59.7071 35.2929C59.8946 35.4805 60 35.7348 60 36V42C60 42.2652 60.1054 42.5196 60.2929 42.7071C60.4804 42.8947 60.7348 43 61 43C61.2652 43 61.5196 42.8947 61.7071 42.7071C61.8946 42.5196 62 42.2652 62 42V36C62 35.2044 61.6839 34.4413 61.1213 33.8787C60.5587 33.3161 59.7957 33 59 33Z" fill="#FFC81A"/>
<path d="M24.47 13.8507C24.6291 13.9493 24.8128 14.0013 25 14.0007C25.1565 13.9998 25.3107 13.9621 25.45 13.8907L31.45 10.8907C31.6138 10.8068 31.7513 10.6793 31.8472 10.5223C31.9432 10.3652 31.994 10.1848 31.994 10.0007C31.994 9.81666 31.9432 9.63618 31.8472 9.47915C31.7513 9.32212 31.6138 9.19462 31.45 9.11071L25.45 6.11071C25.2978 6.034 25.1284 5.99747 24.9581 6.00461C24.7878 6.01174 24.6222 6.0623 24.4769 6.15147C24.3316 6.24064 24.2115 6.36547 24.128 6.51411C24.0446 6.66274 24.0005 6.83024 24 7.00071V13.0007C23.9996 13.1707 24.0426 13.3379 24.1249 13.4866C24.2071 13.6353 24.3259 13.7606 24.47 13.8507ZM26 8.62071L28.76 10.0007L26 11.3807V8.62071Z" fill="#FFC81A"/>
<path d="M27 19C28.78 19 30.5201 18.4722 32.0001 17.4832C33.4802 16.4943 34.6337 15.0887 35.3149 13.4442C35.9961 11.7996 36.1743 9.99002 35.8271 8.24419C35.4798 6.49836 34.6226 4.89472 33.364 3.63604C32.1053 2.37737 30.5016 1.5202 28.7558 1.17294C27.01 0.82567 25.2004 1.0039 23.5558 1.68509C21.9113 2.36628 20.5057 3.51983 19.5168 4.99987C18.5278 6.47991 18 8.21997 18 10C18 12.387 18.9482 14.6761 20.636 16.364C22.3239 18.0518 24.6131 19 27 19ZM27 3C28.3845 3 29.7378 3.41055 30.889 4.17972C32.0401 4.94889 32.9373 6.04214 33.4672 7.32122C33.997 8.6003 34.1356 10.0078 33.8655 11.3656C33.5954 12.7235 32.9287 13.9708 31.9497 14.9498C30.9708 15.9287 29.7235 16.5954 28.3656 16.8655C27.0078 17.1356 25.6003 16.997 24.3212 16.4672C23.0421 15.9373 21.9489 15.0401 21.1797 13.889C20.4105 12.7379 20 11.3845 20 10C20 8.14349 20.7375 6.36301 22.0503 5.05026C23.363 3.7375 25.1435 3 27 3Z" fill="#FFC81A"/>
<path d="M37 23C37.1552 23 37.3083 22.9639 37.4472 22.8944C37.586 22.825 37.7068 22.7242 37.8 22.6L40.8 18.6C40.9591 18.3878 41.0274 18.1211 40.9899 17.8586C40.9524 17.596 40.8121 17.3591 40.6 17.2C40.3878 17.0409 40.1211 16.9725 39.8585 17.0101C39.596 17.0476 39.3591 17.1878 39.2 17.4L36.2 21.4C36.0408 21.6122 35.9725 21.8789 36.01 22.1414C36.0475 22.404 36.1878 22.6409 36.4 22.8C36.5731 22.9298 36.7836 23 37 23Z" fill="#FFC81A"/>
<path d="M39.2 26.6C39.2931 26.7242 39.4139 26.825 39.5528 26.8944C39.6916 26.9639 39.8447 27 40 27C40.2163 27 40.4269 26.9298 40.6 26.8L44.6 23.8C44.8121 23.6409 44.9524 23.404 44.9899 23.1414C45.0274 22.8789 44.9591 22.6122 44.8 22.4C44.6408 22.1878 44.4039 22.0476 44.1414 22.0101C43.8788 21.9725 43.6121 22.0409 43.4 22.2L39.4 25.2C39.1878 25.3591 39.0475 25.596 39.01 25.8586C38.9725 26.1211 39.0408 26.3878 39.2 26.6Z" fill="#FFC81A"/>
<path d="M48.9999 28.7993C48.9762 28.6667 48.9259 28.5403 48.8521 28.4277C48.7782 28.315 48.6824 28.2184 48.5703 28.1437C48.4583 28.069 48.3323 28.0177 48.1999 27.9929C48.0675 27.9681 47.9315 27.9703 47.7999 27.9993L42.7999 28.9993C42.6686 29.0125 42.5412 29.0513 42.4249 29.1137C42.3086 29.1761 42.2057 29.2608 42.1221 29.3629C41.9533 29.5692 41.8734 29.8341 41.8999 30.0993C41.9265 30.3645 42.0573 30.6084 42.2635 30.7771C42.4698 30.9459 42.7347 31.0258 42.9999 30.9993H43.1999L48.1999 29.9993C48.3325 29.9756 48.4589 29.9253 48.5716 29.8514C48.6842 29.7776 48.7808 29.6818 48.8555 29.5697C48.9302 29.4576 48.9815 29.3316 49.0064 29.1993C49.0312 29.0669 49.029 28.9308 48.9999 28.7993Z" fill="#FFC81A"/>
<path d="M3 29H15C15.2652 29 15.5196 28.8947 15.7071 28.7071C15.8946 28.5196 16 28.2652 16 28V12C16 11.7348 15.8946 11.4805 15.7071 11.2929C15.5196 11.1054 15.2652 11 15 11H3C2.73478 11 2.48043 11.1054 2.29289 11.2929C2.10536 11.4805 2 11.7348 2 12V28C2 28.2652 2.10536 28.5196 2.29289 28.7071C2.48043 28.8947 2.73478 29 3 29ZM4 13H14V27H4V13Z" fill="#FFC81A"/>
<path d="M11 15H9C8.73478 15 8.48043 15.1054 8.29289 15.2929C8.10536 15.4805 8 15.7348 8 16C8 16.2652 8.10536 16.5196 8.29289 16.7071C8.48043 16.8947 8.73478 17 9 17H11C11.2652 17 11.5196 16.8947 11.7071 16.7071C11.8946 16.5196 12 16.2652 12 16C12 15.7348 11.8946 15.4805 11.7071 15.2929C11.5196 15.1054 11.2652 15 11 15Z" fill="#FFC81A"/>
<path d="M11 19H7C6.73478 19 6.48043 19.1054 6.29289 19.2929C6.10536 19.4805 6 19.7348 6 20C6 20.2652 6.10536 20.5196 6.29289 20.7071C6.48043 20.8947 6.73478 21 7 21H11C11.2652 21 11.5196 20.8947 11.7071 20.7071C11.8946 20.5196 12 20.2652 12 20C12 19.7348 11.8946 19.4805 11.7071 19.2929C11.5196 19.1054 11.2652 19 11 19Z" fill="#FFC81A"/>
<path d="M11 23H7C6.73478 23 6.48043 23.1054 6.29289 23.2929C6.10536 23.4805 6 23.7348 6 24C6 24.2652 6.10536 24.5196 6.29289 24.7071C6.48043 24.8947 6.73478 25 7 25H11C11.2652 25 11.5196 24.8947 11.7071 24.7071C11.8946 24.5196 12 24.2652 12 24C12 23.7348 11.8946 23.4805 11.7071 23.2929C11.5196 23.1054 11.2652 23 11 23Z" fill="#FFC81A"/>
<path d="M36.1202 28.7001C36.0545 28.5859 35.967 28.4857 35.8626 28.4052C35.7582 28.3248 35.639 28.2657 35.5118 28.2314C35.3846 28.197 35.2518 28.1881 35.1211 28.205C34.9905 28.2219 34.8644 28.2645 34.7502 28.3301C34.6359 28.3958 34.5357 28.4833 34.4553 28.5877C34.3749 28.6921 34.3158 28.8113 34.2814 28.9385C34.2471 29.0657 34.2381 29.1984 34.255 29.3291C34.272 29.4598 34.3145 29.5859 34.3802 29.7001L38.7902 37.3301L22.7902 43.3301C22.7902 43.3301 22.7902 43.3301 22.7202 43.3301H22.6402L18.3102 45.8301C18.0824 45.9618 17.8309 46.0472 17.5701 46.0815C17.3093 46.1159 17.0442 46.0984 16.7902 46.0301C16.2798 45.8922 15.8447 45.5579 15.5802 45.1001L13.5802 41.6401C13.3449 41.1874 13.2915 40.6619 13.4309 40.1712C13.5703 39.6804 13.892 39.2615 14.3302 39.0001L17.7902 37.0001L20.2902 41.3301C20.3783 41.4827 20.5051 41.6093 20.6579 41.6971C20.8107 41.7849 20.9839 41.8308 21.1602 41.8301C21.336 41.8308 21.509 41.7851 21.6615 41.6976C21.8141 41.6101 21.9409 41.484 22.0292 41.3318C22.1174 41.1797 22.164 41.007 22.1641 40.8311C22.1643 40.6552 22.1181 40.4824 22.0302 40.3301L19.4502 35.8701L32.0002 25.5201L32.4102 26.2301C32.4758 26.3444 32.5633 26.4446 32.6677 26.525C32.7721 26.6054 32.8913 26.6645 33.0185 26.6988C33.1457 26.7332 33.2785 26.7422 33.4092 26.7252C33.5398 26.7083 33.6659 26.6658 33.7802 26.6001C33.8944 26.5345 33.9946 26.4469 34.075 26.3425C34.1555 26.2382 34.2145 26.119 34.2489 25.9917C34.2833 25.8645 34.2922 25.7318 34.2753 25.6011C34.2583 25.4704 34.2158 25.3444 34.1502 25.2301L33.1502 23.5001C33.0769 23.3748 32.9772 23.267 32.858 23.1841C32.7389 23.1012 32.6031 23.0452 32.4602 23.0201C32.3164 22.993 32.1685 22.9978 32.0268 23.0341C31.8852 23.0704 31.7532 23.1373 31.6402 23.2301L17.6402 34.7701L13.3802 37.2301C12.6157 37.6754 12.0204 38.3616 11.6874 39.1812C11.3545 40.0009 11.3027 40.9079 11.5402 41.7601L10.5402 42.3301C10.0249 42.626 9.60913 43.0682 9.34552 43.6007C9.08192 44.1332 8.98237 44.7319 9.05949 45.3211C9.13662 45.9102 9.38694 46.4632 9.77872 46.9099C10.1705 47.3565 10.6861 47.6768 11.2602 47.8301C11.5146 47.8975 11.7769 47.9311 12.0402 47.9301C12.5662 47.9279 13.0829 47.7902 13.5402 47.5301L14.5402 46.9601C15.0205 47.4564 15.6247 47.8154 16.2902 48.0001C16.6319 48.0957 16.9853 48.1428 17.3402 48.1401C18.0431 48.1417 18.7336 47.9553 19.3402 47.6001L20.2102 47.1001L22.2102 50.5701C22.6076 51.2573 23.2613 51.7589 24.0279 51.9651C24.7945 52.1713 25.6116 52.0652 26.3002 51.6701C26.6418 51.4733 26.9412 51.2111 27.1814 50.8984C27.4216 50.5858 27.5978 50.2289 27.7 49.8481C27.8021 49.4673 27.8282 49.0701 27.7768 48.6793C27.7253 48.2884 27.5974 47.9115 27.4002 47.5701L25.5802 44.4001L40.5802 38.7701C40.7162 38.719 40.8394 38.6388 40.9413 38.5352C41.0432 38.4316 41.1213 38.307 41.1702 38.1701C41.2188 38.0349 41.2378 37.8907 41.2257 37.7475C41.2136 37.6042 41.1708 37.4653 41.1002 37.3401L36.1202 28.7001ZM12.5002 45.7901C12.3863 45.8559 12.2605 45.8987 12.1301 45.9158C11.9997 45.933 11.8672 45.9242 11.7402 45.8901C11.484 45.8236 11.2646 45.6581 11.1302 45.4301C11.0643 45.3162 11.0216 45.1905 11.0044 45.0601C10.9873 44.9297 10.996 44.7971 11.0302 44.6701C11.0643 44.5424 11.1234 44.4228 11.2041 44.3181C11.2848 44.2134 11.3854 44.1257 11.5002 44.0601L12.3702 43.5601L13.3702 45.2901L12.5002 45.7901ZM25.6602 48.5901C25.726 48.704 25.7687 48.8297 25.7859 48.9601C25.803 49.0906 25.7943 49.2231 25.7602 49.3501C25.6888 49.6043 25.5199 49.82 25.2902 49.9501C25.0617 50.0813 24.7908 50.1171 24.5361 50.0497C24.2815 49.9823 24.0637 49.8171 23.9302 49.5901L21.9302 46.1201L23.5902 45.1701H23.6702L25.6602 48.5901Z" fill="#FFC81A"/>
</g>
</g>
</svg>
