<svg width="24" height="25" viewBox="0 0 24 25" fill="none" xmlns="http://www.w3.org/2000/svg">
<g id="icon/ic_play">
<path id="Vector" d="M5.25 21.2797C5.05109 21.2797 4.86032 21.2007 4.71967 21.06C4.57902 20.9194 4.5 20.7286 4.5 20.5297L4.5 4.02972C4.49999 3.89938 4.53395 3.77129 4.59852 3.65808C4.6631 3.54486 4.75606 3.45043 4.86825 3.38409C4.98044 3.31775 5.10798 3.28179 5.2383 3.27975C5.36862 3.27772 5.49722 3.30968 5.61143 3.37249L20.6114 11.6225C20.7291 11.6872 20.8273 11.7823 20.8956 11.8979C20.964 12.0135 21 12.1454 21 12.2797C21 12.414 20.964 12.5458 20.8956 12.6614C20.8273 12.777 20.7291 12.8722 20.6114 12.9369L5.61143 21.1869C5.50069 21.2478 5.37637 21.2797 5.25 21.2797ZM6 5.29789L6 19.2613L18.6936 12.2797L6 5.29789Z" fill="#FA541C"/>
</g>
</svg>
