<svg width="640" height="482" viewBox="0 0 640 482" fill="none" xmlns="http://www.w3.org/2000/svg">
<g clip-path="url(#clip0_966_40986)">
<rect x="432.552" y="101.765" width="57.3793" height="367.008" rx="12" fill="#FEE9D1"/>
<rect x="348.689" y="152.616" width="57.3793" height="316.158" rx="12" fill="#FEE9D1"/>
<rect x="264.828" y="219.65" width="57.3793" height="249.379" rx="12" fill="#FEE9D1"/>
<path fill-rule="evenodd" clip-rule="evenodd" d="M427.271 466.705C427.271 466.705 427.416 466.141 427.748 465.103C428.126 465.094 428.732 465.067 429.541 465.005C428.781 465.545 428.024 466.112 427.271 466.705Z" fill="#B3200E"/>
<path fill-rule="evenodd" clip-rule="evenodd" d="M421.92 468.465H383.518C372.769 468.465 363.023 462.151 358.608 452.332L284.12 286.563L326.518 257.953L425.766 452.767C426.664 454.523 427.992 455.97 429.584 457.004C428.798 459.673 428.025 462.382 427.272 465.104C427.272 465.104 427.298 465.107 427.354 465.107C427.43 465.107 427.562 465.104 427.749 465.101C427.417 466.139 427.272 466.702 427.272 466.702C428.025 466.109 428.782 465.542 429.542 465.002C430.058 464.959 430.657 464.903 431.338 464.824C429.242 466.725 426.604 467.964 423.766 468.343C423.157 468.422 422.542 468.465 421.92 468.465Z" fill="#B3200E"/>
<path fill-rule="evenodd" clip-rule="evenodd" d="M427.353 465.109C427.297 465.109 427.271 465.105 427.271 465.105C428.024 462.383 428.797 459.675 429.583 457.006C429.922 457.223 430.274 457.424 430.636 457.605C429.156 460.953 428.241 463.553 427.748 465.102C427.561 465.105 427.429 465.109 427.353 465.109ZM429.541 465.003C430.807 464.104 432.083 463.276 433.376 462.518C432.777 463.365 432.093 464.14 431.337 464.825C430.656 464.904 430.057 464.96 429.541 465.003Z" fill="#B3200E"/>
<path fill-rule="evenodd" clip-rule="evenodd" d="M427.748 465.102C428.241 463.553 429.156 460.953 430.636 457.605C432.133 458.357 433.808 458.769 435.544 458.769L434.35 460.927L434.179 461.234C433.933 461.678 433.665 462.107 433.376 462.518C432.083 463.276 430.807 464.104 429.541 465.003C428.731 465.066 428.126 465.092 427.748 465.102Z" fill="#B3200E"/>
<rect x="180.965" y="194.623" width="57.3793" height="274.151" rx="12" fill="#FEE9D1"/>
<rect x="97.1035" y="259.844" width="57.3793" height="208.929" rx="12" fill="#FEE9D1"/>
<path fill-rule="evenodd" clip-rule="evenodd" d="M336.545 277.632C329.075 271.723 318.161 273.46 312.889 281.397L203.368 446.24C194.596 459.444 179.814 467.376 163.983 467.376H148.572L136.031 431.181C136.031 431.181 237.847 274.783 264.089 251.124C264.089 251.124 290.222 227.528 315.991 245.369C322.799 250.082 327.967 256.809 331.125 264.472L336.545 277.632Z" fill="#FA541C"/>
<path fill-rule="evenodd" clip-rule="evenodd" d="M16.9126 333.839C16.9126 333.839 35.2454 310.885 70.7708 307.313C70.7708 307.313 87.6435 313.073 121.258 373.415C154.873 433.757 177.185 461.272 203.368 446.243L201.2 449.848C194.056 461.731 181.222 468.997 167.375 468.997H152.895C136.951 468.997 121.984 461.319 112.674 448.352C86.512 411.917 32.9837 339.497 16.9126 333.839Z" fill="#FA541C"/>
<path d="M429.264 459.829C430.162 461.585 433.718 458.315 435.31 459.35C436.902 460.384 509.243 313.524 509.243 313.524L524.844 279.679C503.624 278.331 486.829 260.662 486.829 239.064C486.829 216.587 505.016 198.366 527.452 198.366C549.549 198.366 567.528 216.041 568.065 238.049C571.258 235.781 573.446 232.133 573.696 227.887L581.603 93.6175C581.899 88.5508 577.817 85.1837 573.604 85.1837C571.426 85.1837 569.213 86.0826 567.551 88.1099L455.098 225.417C452.568 228.504 454.762 233.147 458.749 233.147H480.366L473.225 246.853C479.906 250.966 484.363 258.355 484.363 266.787C484.363 279.699 473.916 290.165 461.025 290.165C457.7 290.165 454.539 289.468 451.674 288.213L396.138 394.804L429.264 459.829Z" fill="#FA541C"/>
<path fill-rule="evenodd" clip-rule="evenodd" d="M71.0138 463.347C71.0138 463.347 70.5869 465.719 70.4181 468.54C70.3464 469.743 71.2352 470.787 72.4311 470.903C76.5957 471.308 86.075 472.053 92.1279 471.179C92.9756 471.057 93.3124 470.013 92.6858 469.43C90.1899 467.1 84.1627 462.569 74.2419 461.577L71.0138 463.347Z" fill="#063963"/>
<path fill-rule="evenodd" clip-rule="evenodd" d="M68.9453 457.992L71.0508 463.162C71.3392 463.871 72.057 464.309 72.8165 464.23C73.3322 464.177 73.9427 464.078 74.5364 463.897C75.7248 463.534 76.3949 462.272 76.0393 461.083L74.4502 455.758L68.9453 457.992Z" fill="#FDBAB9"/>
<path fill-rule="evenodd" clip-rule="evenodd" d="M32.948 467.462C32.948 467.462 37.1642 470.998 38.8071 475.529C39.2588 476.778 38.3039 478.09 36.98 478.09H28.3032C27.0332 478.09 26.0599 476.946 26.2809 475.694C26.8339 472.563 28.4275 467.476 32.948 467.462Z" fill="#063963"/>
<path fill-rule="evenodd" clip-rule="evenodd" d="M27.7217 462.863C27.7217 462.863 28.5733 466.639 29.2282 469.137C29.3469 469.588 29.8294 469.839 30.2695 469.68C31.5826 469.209 32.651 469.002 33.4279 469.107C33.7867 469.153 34.1006 468.853 34.1052 468.491L34.1867 462.22L27.7217 462.863Z" fill="#FDBAB9"/>
<path fill-rule="evenodd" clip-rule="evenodd" d="M50.1481 377.889L75.7936 456.269C75.7936 456.269 70.8748 459.495 68.5312 459.36L38.0702 396.372C38.0702 396.372 32.7396 435.183 35.3227 463.048L26.5976 463.717C26.5976 463.717 12.4109 392.507 23.1563 368.119L50.1481 377.889Z" fill="#212B36"/>
<path fill-rule="evenodd" clip-rule="evenodd" d="M54.9555 308.918C54.9555 308.918 34.1778 310.767 37.1171 325.595C37.1171 325.595 25.6316 347.252 20.2616 372.757C20.0872 373.587 20.6421 374.398 21.4766 374.539L56.0788 380.477C57.033 380.639 57.9537 380.042 58.1964 379.103L66.4637 347.093L69.6855 361.978L79.9221 359.305L71.3045 315.571C71.3045 315.571 70.1023 309.192 54.9555 308.918Z" fill="#116E95"/>
<path fill-rule="evenodd" clip-rule="evenodd" d="M64.5528 385.144C63.4627 384.544 62.1868 384.376 60.9796 384.679L58.5722 385.279C58.0604 385.408 57.5535 385.055 57.4946 384.528L55.0033 362.315C51.8881 363.794 47.3939 363.62 45.9121 363.511L51.646 389.698H71.7115L64.5528 385.144Z" fill="#FDBAB9"/>
<path fill-rule="evenodd" clip-rule="evenodd" d="M117.865 336.958L117.259 334.938C116.91 333.778 116.052 332.835 114.928 332.384L103.959 327.965C103.959 327.965 103.794 326.555 106.277 325.596C108.76 324.64 108.18 321.852 108.18 321.852C108.18 321.852 104.787 323.404 99.8205 325.863C96.9799 327.27 95.3863 329.751 94.5413 331.619L69.6855 361.975L72.6038 363.985C76.4411 366.628 81.719 365.33 83.8998 361.207L97.3648 335.34C104.125 337.376 110.966 337.765 117.865 336.958Z" fill="#FDBAB9"/>
<path fill-rule="evenodd" clip-rule="evenodd" d="M61.6861 294.757L55.2954 312.676C55.2954 312.676 60.9546 317.108 65.0843 315.608L68.3045 305.337C68.3045 305.337 65.8448 292.784 61.6861 294.757Z" fill="#FDBAB9"/>
<path fill-rule="evenodd" clip-rule="evenodd" d="M80.7606 288.322C80.7606 288.598 74.6044 305.779 74.6044 305.779L64.8862 302.052L68.3058 284.897C68.3058 284.897 80.7606 283.699 80.7606 288.322Z" fill="#FDBAB9"/>
<path fill-rule="evenodd" clip-rule="evenodd" d="M70.0109 289.077L67.5048 297.966C67.4725 298.08 67.4564 298.195 67.4561 298.313C67.4551 299.038 67.6344 301.533 70.1707 301.193C72.4722 300.887 74.577 300.64 75.9158 301.269C76.5167 301.552 76.8042 302.248 76.5795 302.874C76.02 304.436 74.6938 307.929 73.0791 310.789C72.7515 311.369 72.0331 311.593 71.4272 311.319C69.602 310.486 65.8016 308.624 63.0945 306.406C62.7277 306.106 62.5511 305.635 62.6386 305.167C63.0646 302.894 64.3332 295.979 64.3892 293.997C64.4418 292.137 62.3584 290.717 61.4406 290.183C61.14 290.008 60.9262 289.72 60.8446 289.381C60.5568 288.184 60.3124 285.474 63.7629 284.877C64.4849 284.752 64.9556 284.059 64.8089 283.34C64.5171 281.908 64.6105 279.801 67.3248 279.025C70.0839 278.235 71.82 279.899 72.7028 281.175C73.06 281.691 73.7281 281.858 74.3001 281.602C74.6257 281.457 75.0191 281.45 75.4418 281.807C76.0118 282.288 76.8792 282.142 77.2976 281.524C78.1022 280.338 79.5639 279.154 82.0381 279.956C86.429 281.379 86.2188 286.45 84.6093 289.207C82.9999 291.964 78.3271 290.15 76.1154 288.323C74.4333 286.934 71.8726 287.765 70.7417 288.243C70.3832 288.395 70.1165 288.702 70.0109 289.077Z" fill="#063963"/>
<path fill-rule="evenodd" clip-rule="evenodd" d="M63.5078 297.24C63.5078 297.24 66.1064 292.315 64.388 290.769C62.6697 289.223 59.7587 289.476 59.837 293.327C59.9344 298.117 63.5078 297.24 63.5078 297.24Z" fill="#FDBAB9"/>
<path fill-rule="evenodd" clip-rule="evenodd" d="M57.7171 481.118C57.5207 481.118 57.3211 481.075 57.129 480.983C56.3731 480.627 56.0241 479.671 56.3491 478.844L87.5975 399.412C87.9225 398.585 88.7984 398.206 89.555 398.559C90.3108 398.915 90.6598 399.874 90.3348 400.701L59.0868 480.132C58.844 480.749 58.2944 481.118 57.7171 481.118Z" fill="#22B8CF"/>
<path fill-rule="evenodd" clip-rule="evenodd" d="M92.9211 481.118C92.3435 481.118 91.7939 480.748 91.5515 480.132L60.303 400.701C59.9781 399.874 60.327 398.915 61.0832 398.559C61.8385 398.203 62.7151 398.585 63.0407 399.412L94.2888 478.844C94.6141 479.671 94.2648 480.627 93.5089 480.982C93.3171 481.075 93.1175 481.118 92.9211 481.118Z" fill="#22B8CF"/>
<path fill-rule="evenodd" clip-rule="evenodd" d="M190.727 481.118C190.53 481.118 190.331 481.075 190.139 480.983C189.383 480.627 189.034 479.671 189.359 478.844L220.606 399.412C220.932 398.585 221.807 398.206 222.563 398.559C223.32 398.915 223.669 399.874 223.346 400.701L192.096 480.132C191.854 480.749 191.304 481.118 190.727 481.118Z" fill="#22B8CF"/>
<path fill-rule="evenodd" clip-rule="evenodd" d="M225.93 481.118C225.354 481.118 224.805 480.748 224.561 480.132L193.313 400.701C192.988 399.874 193.337 398.915 194.093 398.559C194.848 398.203 195.725 398.585 196.05 399.412L227.298 478.844C227.624 479.671 227.275 480.627 226.519 480.982C226.328 481.075 226.127 481.118 225.93 481.118Z" fill="#22B8CF"/>
<path fill-rule="evenodd" clip-rule="evenodd" d="M169.772 467.617H173.466V427.59H169.772V467.617Z" fill="#22B8CF"/>
<path fill-rule="evenodd" clip-rule="evenodd" d="M187.8 468.39H155.44V468.215C155.44 466.979 156.439 465.981 157.672 465.981H185.395C186.723 465.981 187.8 467.059 187.8 468.39Z" fill="#22B8CF"/>
<path fill-rule="evenodd" clip-rule="evenodd" d="M192.601 426.204C192.601 428.392 190.813 430.184 188.628 430.184H155.888C153.703 430.184 151.915 428.392 151.915 426.204V422.605C151.915 420.414 153.703 418.625 155.888 418.625H188.628C190.813 418.625 192.601 420.414 192.601 422.605V426.204Z" fill="#77F0ED"/>
<path fill-rule="evenodd" clip-rule="evenodd" d="M155.889 418.625C155.819 418.503 141.59 416.912 141.59 416.912C141.59 416.912 142.056 421.245 140.601 427.209C139.145 433.177 118.255 459.024 118.255 459.024L120.445 465.984C113.672 468.347 107.011 468.722 100.455 467.187L114.03 459.024C114.03 459.024 126.735 415.653 134.517 407.916L148.779 402.973L155.889 418.625Z" fill="#FDBAB9"/>
<path fill-rule="evenodd" clip-rule="evenodd" d="M142.413 404.064C142.413 404.064 137.19 404.874 131.317 408.809C130.392 409.426 129.884 410.506 130.023 411.613C130.727 417.191 133.62 435.251 143.156 452.89C143.657 453.82 143.803 454.904 143.58 455.938L141.924 463.66L138.85 466.545H146.765L152.034 452.265L149.781 451.552C148.033 450.996 146.835 449.388 146.804 447.552L146.538 432.234C146.765 425.407 142.359 420.697 142.359 420.697L155 420.084L142.413 404.064Z" fill="#FDBAB9"/>
<path fill-rule="evenodd" clip-rule="evenodd" d="M135.76 467.943C135.04 468.888 143.517 470.134 147.8 468.07C147.8 468.07 153.74 457.721 153.74 452.394C153.74 452.394 153.266 451.31 149.78 451.557C149.78 451.557 147.785 463.804 145.682 465.177C143.575 466.55 139.793 465.316 139.793 465.316C139.793 465.316 136.823 466.55 135.76 467.943Z" fill="#063963"/>
<path fill-rule="evenodd" clip-rule="evenodd" d="M187.801 393.387C187.801 393.387 195.998 405.602 196.671 411.174C197.343 416.746 194.425 419.01 185.824 419.383C177.222 419.755 154.259 419.752 154.259 419.752L134.661 402.972C134.661 402.972 148.943 397.865 152.657 396.421C156.37 394.978 187.801 393.387 187.801 393.387Z" fill="#212B36"/>
<path fill-rule="evenodd" clip-rule="evenodd" d="M119.618 463.636C119.618 463.636 121.976 465.927 120.383 468.474C120.383 468.474 101.701 471.789 96.6294 470.283C96.6294 470.283 97.6826 467.877 103.394 465.136L102.973 465.459C102.439 465.871 102.752 466.724 103.423 466.685C107.187 466.47 114.976 465.778 119.618 463.636Z" fill="#063963"/>
<path fill-rule="evenodd" clip-rule="evenodd" d="M171.234 324.763C172.473 325.152 176.938 326.757 176.361 329.633C176.285 330.016 176.644 330.339 177.019 330.236C178.943 329.719 183.193 329.063 185.827 332.372C188.154 335.291 186.415 338.046 184.998 339.559C184.656 339.924 184.944 340.518 185.44 340.455C188.977 340.007 196.663 339.901 197.92 347.115C199.093 353.84 194.419 355.735 191.648 356.272C191.179 356.361 191.069 356.98 191.472 357.234C192.855 358.114 194.457 359.93 193.81 363.515C192.795 369.13 181.803 368.672 180.518 368.596C180.437 368.593 180.36 368.57 180.289 368.527L162.682 358.47C162.545 358.391 162.45 358.256 162.423 358.097L158.869 337.532C158.84 337.367 158.892 337.196 159.009 337.074L170.698 324.905C170.837 324.76 171.042 324.704 171.234 324.763Z" fill="#063963"/>
<path fill-rule="evenodd" clip-rule="evenodd" d="M165.905 391.453C165.905 391.453 156.359 382.348 151.659 376.315C149.119 373.056 148.322 368.762 149.496 364.798C151.641 357.555 155.454 350.058 155.802 348.888C156.335 347.099 167.039 347.175 167.039 347.175C167.039 347.175 188.102 360.87 196.378 384.068L187.084 386.968C187.084 386.968 181.584 377.725 176.15 371.846C176.15 371.846 185.553 384.289 185.884 389.384L165.905 391.453Z" fill="#22B8CF"/>
<path fill-rule="evenodd" clip-rule="evenodd" d="M154.232 339.205C154.344 339.578 157.138 348.857 157.356 349.048C157.575 349.239 163.483 349.559 166.264 347.654L161.546 337.759L154.232 339.205Z" fill="#FDBAB9"/>
<path fill-rule="evenodd" clip-rule="evenodd" d="M158.823 319.718C158.823 319.718 153.78 321.85 150.35 329.152C146.921 336.455 149.482 339.826 152.699 340.287C155.915 340.752 160.726 340.679 165.815 335.964C170.903 331.248 165.38 317.188 158.823 319.718Z" fill="#FDBAB9"/>
<path fill-rule="evenodd" clip-rule="evenodd" d="M162.393 332.064C162.393 332.064 166.199 321.381 156.745 321.256L154.52 322.815C154.52 322.815 151.052 316.89 156.745 314.062C162.438 311.235 169.101 313.571 171.524 321.256C173.947 328.94 174.36 334.084 170.33 337.759C166.299 341.436 164.638 337.268 164.638 337.268C164.638 337.268 166.833 333.831 165.939 331.989C165.046 330.15 162.985 332.371 162.985 332.371L162.393 332.064Z" fill="#063963"/>
<path fill-rule="evenodd" clip-rule="evenodd" d="M163.454 333.255C163.454 333.255 165.378 327.752 167.944 329.943C170.51 332.134 165.858 335.028 164.037 335.963L163.454 333.255Z" fill="#FDBAB9"/>
<path fill-rule="evenodd" clip-rule="evenodd" d="M146.181 392.444L153.195 385.673L162.898 389.778C162.898 389.778 172.556 391.278 178.084 389.778C183.611 388.279 183.611 388.279 183.611 388.279L196.103 384.384L198.065 389.94C198.563 391.35 198.062 392.915 196.845 393.782C195.764 394.55 194.497 395.397 193.69 395.749C192.045 396.471 153.139 395.252 153.139 395.252L146.181 392.444Z" fill="#FDBAB9"/>
<path fill-rule="evenodd" clip-rule="evenodd" d="M172.724 395.636C172.693 395.64 172.661 395.64 172.63 395.64L131.944 395.594C130.938 395.594 130.123 394.776 130.125 393.768C130.125 392.76 130.945 391.929 131.948 391.946L172.634 391.992C173.64 391.992 174.454 392.809 174.453 393.817C174.452 394.793 173.686 395.59 172.724 395.636Z" fill="#770508"/>
<path fill-rule="evenodd" clip-rule="evenodd" d="M95.3677 358.629H129.251C131.751 358.629 134.026 360.072 135.093 362.339L150.757 395.615H108.648C107.038 395.615 105.59 394.626 104.998 393.127L92.8511 362.336C92.1495 360.556 93.4583 358.629 95.3677 358.629Z" fill="#770508"/>
<path fill-rule="evenodd" clip-rule="evenodd" d="M119.242 375.692C119.976 377.979 119.433 380.196 118.03 380.651C116.627 381.103 114.894 379.616 114.159 377.333C113.425 375.046 113.968 372.825 115.371 372.374C116.774 371.922 118.508 373.408 119.242 375.692Z" fill="#FDAB76"/>
<path fill-rule="evenodd" clip-rule="evenodd" d="M91.1228 394.335H51.0806V390.197H91.1228C90.2656 390.197 90.2656 394.335 91.1228 394.335Z" fill="#FDAB76"/>
<path fill-rule="evenodd" clip-rule="evenodd" d="M51.4077 394.335C51.2268 394.335 51.0788 394.186 51.0788 394.005V390.525C51.0788 390.344 51.2268 390.196 51.4077 390.196H92.0131C92.194 390.196 92.342 390.048 92.342 389.866V389.59C92.342 389.408 92.194 389.26 92.0131 389.26H48.7861C47.8309 389.26 47.0566 390.034 47.0566 390.993V393.639C47.0566 394.539 47.7865 395.271 48.6871 395.271H92.0131C92.194 395.271 92.342 395.122 92.342 394.941V394.664C92.342 394.483 92.194 394.335 92.0131 394.335H51.4077Z" fill="#770508"/>
<path fill-rule="evenodd" clip-rule="evenodd" d="M229.587 397.126C229.692 396.665 229.551 396.187 229.206 395.825C228.864 395.462 228.35 395.251 227.808 395.251H44.5573C43.8458 395.251 43.1834 395.564 42.8002 396.088C42.417 396.609 42.3657 397.265 42.664 397.825L44.6501 401.565C45.1046 402.422 46.0898 402.969 47.1739 402.969H226.551C227.561 402.969 228.426 402.349 228.62 401.486L229.587 397.126Z" fill="#77F0ED"/>
<path fill-rule="evenodd" clip-rule="evenodd" d="M277.191 176.641C277.191 181.182 273.517 184.864 268.984 184.864C264.452 184.864 260.774 181.182 260.774 176.641C260.774 172.1 264.452 168.419 268.984 168.419C273.517 168.419 277.191 172.1 277.191 176.641Z" fill="#22B8CF"/>
<path fill-rule="evenodd" clip-rule="evenodd" d="M122.575 189.381L121.489 187.391L197.799 145.621L268.739 176.86L329.65 117.002L329.771 116.932L401.293 74.6464L402.441 76.5995L331.038 118.815L269.229 179.553L197.907 148.145L122.575 189.381Z" fill="#22B8CF"/>
<path fill-rule="evenodd" clip-rule="evenodd" d="M130.241 188.387C130.241 192.928 126.567 196.609 122.034 196.609C117.501 196.609 113.827 192.928 113.827 188.387C113.827 183.846 117.501 180.164 122.034 180.164C126.567 180.164 130.241 183.846 130.241 188.387Z" fill="#22B8CF"/>
<path fill-rule="evenodd" clip-rule="evenodd" d="M206.062 146.881C206.062 151.422 202.387 155.104 197.854 155.104C193.321 155.104 189.646 151.422 189.646 146.881C189.646 142.34 193.321 138.659 197.854 138.659C202.387 138.659 206.062 142.34 206.062 146.881Z" fill="#22B8CF"/>
<path fill-rule="evenodd" clip-rule="evenodd" d="M336.599 117.91C336.599 122.452 332.922 126.133 328.389 126.133C323.857 126.133 320.183 122.452 320.183 117.91C320.183 113.369 323.857 109.688 328.389 109.688C332.922 109.688 336.599 113.369 336.599 117.91Z" fill="#22B8CF"/>
<path fill-rule="evenodd" clip-rule="evenodd" d="M410.076 75.6231C410.076 80.1642 406.402 83.8453 401.866 83.8453C397.333 83.8453 393.659 80.1642 393.659 75.6231C393.659 71.0819 397.333 67.4008 401.866 67.4008C406.402 67.4008 410.076 71.0819 410.076 75.6231Z" fill="#22B8CF"/>
<path fill-rule="evenodd" clip-rule="evenodd" d="M331.455 427.416C330.376 429.015 326.09 465.209 325.419 478.578C325.377 479.484 326.097 480.236 327.001 480.236C327.781 480.236 328.442 479.669 328.564 478.898L336.402 428.567L331.455 427.416Z" fill="#22B8CF"/>
<path fill-rule="evenodd" clip-rule="evenodd" d="M365.917 427.416C366.996 429.015 371.282 465.209 371.953 478.578C371.999 479.484 371.275 480.236 370.374 480.236C369.594 480.236 368.93 479.669 368.811 478.898L360.97 428.567L365.917 427.416Z" fill="#22B8CF"/>
<path fill-rule="evenodd" clip-rule="evenodd" d="M324.973 424.587L324.97 424.982C324.944 427.823 327.384 430.153 330.443 430.202L366.681 430.822C369.694 430.871 372.207 428.69 372.352 425.895L372.372 425.533C372.523 422.616 370.053 420.161 366.912 420.105L330.657 419.453C327.556 419.397 325 421.707 324.973 424.587Z" fill="#77F0ED"/>
<path fill-rule="evenodd" clip-rule="evenodd" d="M395.469 477.261C389.029 477.261 386.177 476.707 384.904 476.203C385.151 477.264 386.095 478.101 387.285 478.101H410.074C410.84 478.101 411.327 477.363 411.143 476.697C408.544 476.908 403.028 477.261 395.469 477.261Z" fill="#063963"/>
<path fill-rule="evenodd" clip-rule="evenodd" d="M411.141 476.697C411.105 476.562 411.049 476.43 410.954 476.308C409.217 474.087 405.73 470.601 400.987 470.67C394.037 470.766 391.616 471.52 386.215 470.71L384.942 474.941C384.811 475.372 384.811 475.804 384.903 476.203C386.176 476.707 389.027 477.261 395.468 477.261C403.027 477.261 408.543 476.908 411.141 476.697Z" fill="#063963"/>
<path fill-rule="evenodd" clip-rule="evenodd" d="M387.777 466.154L386.214 471.482C386.214 471.482 389.678 473.06 392.727 471.792L393.326 467.178L387.777 466.154Z" fill="#FDBAB9"/>
<path fill-rule="evenodd" clip-rule="evenodd" d="M435.012 473.907C429.989 477.95 427.424 479.308 426.118 479.717C426.97 480.382 428.223 480.442 429.154 479.694L446.916 465.396C447.515 464.911 447.436 464.038 446.876 463.636C444.982 465.429 440.903 469.165 435.012 473.907Z" fill="#063963"/>
<path fill-rule="evenodd" clip-rule="evenodd" d="M446.878 463.637C446.766 463.555 446.641 463.489 446.493 463.453C443.756 462.82 438.868 462.303 435.214 465.331C429.856 469.766 428.438 471.872 423.725 474.633L425.363 478.713C425.53 479.131 425.797 479.467 426.119 479.718C427.425 479.309 429.991 477.952 435.013 473.908C440.904 469.167 444.983 465.43 446.878 463.637Z" fill="#063963"/>
<path fill-rule="evenodd" clip-rule="evenodd" d="M354.328 405.451C354.328 405.451 392.895 408.608 400.805 412.338C408.716 416.069 394.349 468.364 394.349 468.364C394.349 468.364 392.194 469.402 387.402 467.909C387.402 467.909 392.316 429.319 388.658 420.949L346.901 414.108L354.328 405.451Z" fill="#212B36"/>
<path fill-rule="evenodd" clip-rule="evenodd" d="M419.891 467.287C420.25 467.614 423.723 474.632 423.723 474.632C423.723 474.632 427.591 473.795 428.377 471.34L424.897 465.007L419.891 467.287Z" fill="#FDBAB9"/>
<path fill-rule="evenodd" clip-rule="evenodd" d="M331.1 405.129C331.1 405.129 329.843 408.16 329.893 412.184C329.965 417.753 334.432 422.271 339.984 422.547L385.577 424.63C386.537 424.676 387.353 425.342 387.593 426.278C388.665 430.43 393.902 443.179 419.502 468.618C420.183 469.294 421.242 469.409 422.055 468.895L425.699 466.591C426.081 466.348 426.202 465.847 425.976 465.455L399.428 420.043C398.033 417.736 395.793 416.072 393.185 415.403L354.329 405.452L331.1 405.129Z" fill="#212B36"/>
<path fill-rule="evenodd" clip-rule="evenodd" d="M383.994 335.205C383.994 335.205 371.149 342.837 366.169 347.028L376.461 352.782C376.461 352.782 382.023 346.346 387.322 343.664L383.994 335.205Z" fill="#FDBAB9"/>
<path fill-rule="evenodd" clip-rule="evenodd" d="M330.272 405.45C330.272 405.45 342.581 408.455 354.33 405.45C354.33 405.45 370.767 383.312 377.128 377.285C377.128 377.285 387.272 393.323 409.853 395.597L411.113 392.776C411.113 392.776 393.137 384.476 387.601 371.72C382.069 358.964 379.845 353.524 374.809 350.195C371.674 348.123 369.796 346.706 368.826 345.935C368.296 345.51 367.563 345.463 366.984 345.816C361.639 349.078 336.499 366.329 330.272 405.45Z" fill="#116E95"/>
<g opacity="0.12">
<path fill-rule="evenodd" clip-rule="evenodd" d="M38.2322 395.69H38.201C38.0648 395.67 37.9681 395.545 37.9855 395.41L38.9809 387.498C38.9976 387.36 39.1207 387.264 39.2582 387.281C39.3943 387.297 39.4907 387.422 39.4736 387.561L38.4783 395.473C38.4625 395.598 38.3556 395.69 38.2322 395.69Z" fill="black"/>
<path fill-rule="evenodd" clip-rule="evenodd" d="M66.6391 345.662L66.5839 345.656C66.4451 345.626 66.3569 345.488 66.3869 345.349L69.2712 332.08C69.3018 331.941 69.437 331.852 69.5781 331.882C69.7166 331.915 69.8051 332.05 69.7748 332.192L66.8904 345.458C66.8641 345.58 66.7576 345.662 66.6391 345.662Z" fill="black"/>
<path fill-rule="evenodd" clip-rule="evenodd" d="M47.9255 363.844C46.5075 363.844 45.4951 363.735 45.3859 363.722L45.2014 363.702L37.6357 328.364C37.6058 328.226 37.6942 328.087 37.8334 328.058C37.9738 328.028 38.1094 328.117 38.1393 328.255L45.6267 363.228C46.7526 363.326 52.765 363.725 55.9392 361.475L49.3853 330.773L50.7533 328.189C50.8198 328.064 50.9757 328.015 51.1016 328.081C51.2273 328.15 51.2753 328.305 51.2085 328.43L49.928 330.849L56.5122 361.692L56.3806 361.791C54.0873 363.518 50.3928 363.844 47.9255 363.844Z" fill="black"/>
<path fill-rule="evenodd" clip-rule="evenodd" d="M376.458 376.453C376.514 376.453 376.573 376.433 376.619 376.397C376.738 376.308 376.761 376.14 376.669 376.021C372.843 371.022 370.646 365.341 370.626 365.285C370.57 365.147 370.416 365.078 370.278 365.13C370.14 365.183 370.07 365.338 370.126 365.476C370.146 365.536 372.373 371.286 376.244 376.347C376.297 376.417 376.376 376.453 376.458 376.453Z" fill="black"/>
</g>
<path fill-rule="evenodd" clip-rule="evenodd" d="M408.492 391.302L411.035 390.623L418.751 388.834C419.679 388.62 420.656 388.784 421.462 389.292L428.1 393.473L409.775 393.444L408.492 391.302Z" fill="#FDBAB9"/>
<path fill-rule="evenodd" clip-rule="evenodd" d="M401.416 397.077C401.445 397.077 401.475 397.08 401.505 397.08L440.65 397.041C441.617 397.041 442.403 396.253 442.4 395.288C442.4 394.319 441.611 393.518 440.647 393.535L401.501 393.574C400.534 393.574 399.751 394.362 399.751 395.327C399.751 396.267 400.488 397.031 401.416 397.077Z" fill="#FEE9D1"/>
<path fill-rule="evenodd" clip-rule="evenodd" d="M455.938 360.207L455.901 360.284L440.428 393.487C440.048 394.308 440.403 395.28 441.228 395.662C442.05 396.04 443.042 395.689 443.41 394.862L458.882 361.659C459.262 360.838 458.907 359.866 458.082 359.485C457.285 359.119 456.343 359.442 455.938 360.207Z" fill="#FEE9D1"/>
<path fill-rule="evenodd" clip-rule="evenodd" d="M427.788 399.042C427.959 399.754 444.293 461.124 448.435 476.681C448.911 478.473 447.579 480.233 445.747 480.233C444.471 480.233 443.356 479.353 443.047 478.098L424.916 404.449L427.788 399.042Z" fill="#22B8CF"/>
<path fill-rule="evenodd" clip-rule="evenodd" d="M418.845 399.041C418.674 399.753 402.339 461.124 398.198 476.68C397.721 478.473 399.053 480.233 400.885 480.233C402.165 480.233 403.277 479.353 403.586 478.097L421.716 404.449L418.845 399.041Z" fill="#22B8CF"/>
<path d="M418.297 397.035H428.471V404.525C428.471 406.083 427.224 407.349 425.685 407.349H420.399C419.238 407.349 418.297 406.396 418.297 405.22V397.035Z" fill="#22B8CF"/>
<path fill-rule="evenodd" clip-rule="evenodd" d="M393.286 395.073H450.089C450.882 395.073 451.576 395.617 451.773 396.398L452.566 399.512C452.852 400.632 452.013 401.723 450.872 401.716L392.586 401.377C391.457 401.37 390.632 400.292 390.908 399.182L391.599 396.407C391.793 395.623 392.49 395.073 393.286 395.073Z" fill="#77F0ED"/>
<path fill-rule="evenodd" clip-rule="evenodd" d="M392.783 332.195C392.783 332.195 392.901 341.33 391.427 345.479C389.954 349.624 389.724 352.623 384.704 351.469C379.685 350.319 376.721 346.329 376.277 341.392C376.277 341.392 375.54 333.764 377.359 331.53C379.175 329.299 392.783 332.195 392.783 332.195Z" fill="#FDBAB9"/>
<path fill-rule="evenodd" clip-rule="evenodd" d="M379.089 339.163L379.681 339.411C379.681 339.411 379.343 333.38 381.852 333.4C384.362 333.42 393.569 335.255 396.664 333.011C399.644 330.846 399.644 326.431 397.733 324.391C397.611 324.259 397.404 324.256 397.269 324.368L396.917 324.658C396.68 324.852 396.322 324.658 396.358 324.351C396.391 324.058 396.065 323.854 395.825 324.022C394.888 324.687 392.756 325.518 388.372 324.559C382.155 323.198 377.356 323.933 375.59 327.89C375.474 328.141 375.149 328.167 374.988 327.943C374.669 327.505 374.04 327.096 372.807 327.482C370.662 328.147 369.86 331.884 372.139 336.194C372.248 336.399 372.139 336.659 371.909 336.699C371.11 336.847 369.761 337.427 371.646 339.753C373.577 342.132 375.109 342.607 375.728 342.699C375.892 342.722 376.05 342.63 376.106 342.472L377.372 338.837C377.435 338.649 377.645 338.557 377.83 338.633L379.089 339.163Z" fill="#063963"/>
<path fill-rule="evenodd" clip-rule="evenodd" d="M378.927 339.965C378.927 339.965 379.713 334.495 376.927 334.949C374.141 335.404 375.756 340.957 377.453 341.889L378.927 339.965Z" fill="#FDBAB9"/>
<path fill-rule="evenodd" clip-rule="evenodd" d="M460.869 291.092C457.467 291.092 454.234 290.379 451.303 289.094C442.882 285.4 437 276.978 437 267.178C437 253.97 447.686 243.263 460.869 243.263C465.445 243.263 469.718 244.552 473.349 246.787C480.183 250.993 484.742 258.552 484.742 267.178C484.742 280.385 474.055 291.092 460.869 291.092ZM460.869 244.059C448.124 244.059 437.794 254.409 437.794 267.178C437.794 279.946 448.124 290.297 460.869 290.297C473.615 290.297 483.948 279.946 483.948 267.178C483.948 254.409 473.615 244.059 460.869 244.059Z" fill="#B7860D"/>
<path fill-rule="evenodd" clip-rule="evenodd" d="M460.871 290.297C448.125 290.297 437.795 279.946 437.795 267.178C437.795 254.409 448.125 244.059 460.871 244.059C473.616 244.059 483.949 254.409 483.949 267.178C483.949 279.946 473.616 290.297 460.871 290.297ZM461.375 248.114C450.588 248.114 441.843 256.875 441.843 267.681C441.843 278.488 450.588 287.249 461.375 287.249C472.162 287.249 480.907 278.488 480.907 267.681C480.907 256.875 472.162 248.114 461.375 248.114ZM460.871 245.063C452.489 245.063 444.932 249.724 441.153 257.226C440.962 257.607 441.113 258.072 441.493 258.264C441.608 258.321 441.725 258.347 441.843 258.347C442.122 258.347 442.395 258.192 442.53 257.922C446.049 250.944 453.074 246.61 460.871 246.61C462.115 246.61 463.364 246.722 464.575 246.943C464.626 246.952 464.673 246.956 464.72 246.956C465.086 246.956 465.406 246.693 465.473 246.32C465.551 245.901 465.272 245.498 464.854 245.422C463.549 245.184 462.21 245.063 460.871 245.063Z" fill="#FFC81A"/>
<path fill-rule="evenodd" clip-rule="evenodd" d="M441.837 258.349C441.719 258.349 441.601 258.323 441.487 258.267C441.107 258.074 440.955 257.609 441.147 257.228C444.926 249.726 452.483 245.066 460.864 245.066C462.203 245.066 463.543 245.186 464.848 245.424C465.265 245.5 465.545 245.903 465.467 246.323C465.4 246.695 465.08 246.959 464.713 246.959C464.666 246.959 464.619 246.954 464.569 246.945C463.357 246.724 462.109 246.612 460.864 246.612C453.068 246.612 446.043 250.947 442.523 257.924C442.389 258.194 442.116 258.349 441.837 258.349Z" fill="#FFE475"/>
<path fill-rule="evenodd" clip-rule="evenodd" d="M461.375 287.253C450.588 287.253 441.843 278.492 441.843 267.686C441.843 256.879 450.588 248.118 461.375 248.118C472.162 248.118 480.907 256.879 480.907 267.686C480.907 278.492 472.162 287.253 461.375 287.253Z" fill="#FFE475"/>
<path fill-rule="evenodd" clip-rule="evenodd" d="M459.453 282.228V280.099C457.239 280.01 455.049 279.487 453.491 278.804C452.936 278.56 452.653 277.935 452.811 277.349L453.353 275.366C453.548 274.639 454.339 274.263 455.032 274.554C456.576 275.202 458.484 275.715 460.54 275.715C462.673 275.715 464.265 274.991 464.265 273.505C464.265 272.165 463.033 271.368 460.069 270.57C455.836 269.411 452.801 267.564 452.801 263.832C452.801 260.462 455.257 257.89 459.527 257.202V255.073C459.527 254.388 460.079 253.832 460.765 253.832H462.014C462.697 253.832 463.252 254.388 463.252 255.073V256.984C465.301 257.067 466.792 257.418 467.976 257.835C468.585 258.048 468.915 258.703 468.746 259.325L468.252 261.159C468.06 261.866 467.303 262.253 466.62 261.994C465.53 261.581 463.989 261.151 461.987 261.151C459.453 261.151 458.73 262.201 458.73 263.144C458.73 264.303 460.251 265.1 463.541 266.115C468.242 267.527 470.193 269.484 470.193 272.998C470.193 276.222 467.808 279.121 463.178 279.845V282.228C463.178 282.913 462.626 283.468 461.94 283.468H460.691C460.008 283.468 459.453 282.913 459.453 282.228Z" fill="#B7860D"/>
<path fill-rule="evenodd" clip-rule="evenodd" d="M527.243 280.847C526.336 280.847 525.435 280.818 524.538 280.761C502.53 279.364 485.11 261.038 485.11 238.637C485.11 215.324 503.973 196.426 527.243 196.426C550.162 196.426 568.81 214.758 569.366 237.585C569.372 237.934 569.379 238.285 569.379 238.637C569.379 246.085 567.452 253.084 564.071 259.159C559.421 267.519 552.014 274.129 543.086 277.762C538.194 279.751 532.848 280.847 527.243 280.847ZM527.243 197.829C504.747 197.829 486.509 216.099 486.509 238.637C486.509 261.174 504.747 279.443 527.243 279.443C549.739 279.443 567.977 261.174 567.977 238.637C567.977 216.099 549.739 197.829 527.243 197.829Z" fill="#B7860D"/>
<path fill-rule="evenodd" clip-rule="evenodd" d="M527.244 279.441C504.748 279.441 486.51 261.172 486.51 238.635C486.51 216.098 504.748 197.828 527.244 197.828C549.74 197.828 567.978 216.098 567.978 238.635C567.978 261.172 549.74 279.441 527.244 279.441ZM528.131 204.986C509.091 204.986 493.657 220.449 493.657 239.524C493.657 258.599 509.091 274.062 528.131 274.062C547.171 274.062 562.608 258.599 562.608 239.524C562.608 220.449 547.171 204.986 528.131 204.986ZM527.244 200.181C512.67 200.181 499.532 208.285 492.958 221.331C492.763 221.717 492.917 222.188 493.302 222.384C493.418 222.441 493.538 222.468 493.657 222.468C493.94 222.468 494.216 222.31 494.356 222.037C500.661 209.523 513.263 201.749 527.244 201.749C529.475 201.749 531.713 201.95 533.886 202.348C533.937 202.357 533.985 202.362 534.033 202.362C534.405 202.362 534.729 202.094 534.797 201.718C534.875 201.291 534.592 200.883 534.169 200.806C531.901 200.391 529.57 200.181 527.244 200.181Z" fill="#FFC81A"/>
<path fill-rule="evenodd" clip-rule="evenodd" d="M493.66 222.47C493.54 222.47 493.421 222.444 493.305 222.386C492.919 222.191 492.766 221.719 492.96 221.333C499.534 208.288 512.672 200.184 527.246 200.184C529.573 200.184 531.903 200.393 534.172 200.809C534.595 200.886 534.878 201.294 534.8 201.72C534.731 202.096 534.407 202.365 534.035 202.365C533.988 202.365 533.94 202.36 533.889 202.35C531.716 201.953 529.478 201.752 527.246 201.752C513.266 201.752 500.664 209.526 494.359 222.039C494.219 222.313 493.943 222.47 493.66 222.47Z" fill="#FFE475"/>
<path fill-rule="evenodd" clip-rule="evenodd" d="M528.132 274.065C509.092 274.065 493.658 258.602 493.658 239.527C493.658 220.453 509.092 204.99 528.132 204.99C547.172 204.99 562.609 220.453 562.609 239.527C562.609 258.602 547.172 274.065 528.132 274.065Z" fill="#FFE475"/>
<path fill-rule="evenodd" clip-rule="evenodd" d="M524.747 265.204V261.447C520.837 261.29 516.968 260.365 514.222 259.161C513.239 258.73 512.741 257.628 513.021 256.593L513.976 253.093C514.324 251.809 515.72 251.145 516.944 251.659C519.667 252.804 523.034 253.709 526.66 253.709C530.427 253.709 533.235 252.43 533.235 249.808C533.235 247.442 531.065 246.035 525.832 244.628C518.364 242.582 513.001 239.321 513.001 232.734C513.001 226.787 517.34 222.247 524.873 221.032V217.274C524.873 216.065 525.852 215.084 527.06 215.084H529.264C530.468 215.084 531.447 216.065 531.447 217.274V220.648C535.067 220.793 537.7 221.413 539.788 222.149C540.859 222.526 541.446 223.681 541.149 224.779L540.273 228.015C539.935 229.264 538.604 229.948 537.397 229.49C535.469 228.761 532.75 228.002 529.212 228.002C524.747 228.002 523.471 229.856 523.471 231.519C523.471 233.566 526.149 234.972 531.959 236.763C540.256 239.257 543.705 242.71 543.705 248.913C543.705 254.604 539.491 259.72 531.321 260.999V265.204C531.321 266.413 530.342 267.394 529.134 267.394H526.93C525.722 267.394 524.747 266.413 524.747 265.204Z" fill="#B7860D"/>
<path fill-rule="evenodd" clip-rule="evenodd" d="M555.26 371.415C551.188 371.415 547.254 370.832 543.534 369.745C526.894 364.884 514.542 349.93 513.526 331.945C513.48 331.148 513.457 330.347 513.457 329.54C513.457 328.1 513.529 326.676 513.671 325.272C515.411 308.065 527.552 293.931 543.699 289.284C545.314 288.819 546.968 288.45 548.656 288.181C550.807 287.839 553.011 287.662 555.26 287.662C564.661 287.662 573.338 290.772 580.325 296.021C590.485 303.66 597.061 315.831 597.061 329.54C597.061 352.665 578.345 371.415 555.26 371.415ZM555.26 289.054C532.939 289.054 514.848 307.178 514.848 329.54C514.848 351.898 532.939 370.025 555.26 370.025C577.578 370.025 595.672 351.898 595.672 329.54C595.672 307.178 577.578 289.054 555.26 289.054Z" fill="#B7860D"/>
<path fill-rule="evenodd" clip-rule="evenodd" d="M555.261 370.023C532.94 370.023 514.849 351.896 514.849 329.538C514.849 307.177 532.94 289.052 555.261 289.052C577.579 289.052 595.673 307.177 595.673 329.538C595.673 351.896 577.579 370.023 555.261 370.023ZM556.143 296.154C537.252 296.154 521.938 311.493 521.938 330.418C521.938 349.342 537.252 364.685 556.143 364.685C575.03 364.685 590.345 349.342 590.345 330.418C590.345 311.493 575.03 296.154 556.143 296.154ZM555.261 291.41C540.808 291.41 527.783 299.444 521.263 312.38C521.076 312.752 521.227 313.207 521.599 313.395C521.707 313.451 521.822 313.477 521.938 313.477C522.214 313.477 522.477 313.322 522.612 313.062C528.871 300.638 541.38 292.921 555.261 292.921C557.475 292.921 559.695 293.121 561.856 293.515C561.902 293.524 561.948 293.528 561.994 293.528C562.353 293.528 562.665 293.271 562.734 292.908C562.807 292.497 562.537 292.103 562.126 292.029C559.876 291.617 557.567 291.41 555.261 291.41Z" fill="#FFC81A"/>
<path fill-rule="evenodd" clip-rule="evenodd" d="M521.936 313.477C521.821 313.477 521.706 313.451 521.597 313.395C521.226 313.207 521.074 312.752 521.262 312.38C527.781 299.445 540.806 291.41 555.26 291.41C557.565 291.41 559.874 291.618 562.124 292.029C562.535 292.104 562.805 292.497 562.733 292.908C562.664 293.272 562.351 293.529 561.993 293.529C561.947 293.529 561.901 293.524 561.855 293.515C559.693 293.122 557.473 292.921 555.26 292.921C541.379 292.921 528.87 300.638 522.61 313.062C522.475 313.322 522.212 313.477 521.936 313.477Z" fill="#FFE475"/>
<path fill-rule="evenodd" clip-rule="evenodd" d="M556.145 364.682C537.255 364.682 521.94 349.34 521.94 330.415C521.94 311.491 537.255 296.151 556.145 296.151C575.032 296.151 590.347 311.491 590.347 330.415C590.347 349.34 575.032 364.682 556.145 364.682Z" fill="#FFE475"/>
<path fill-rule="evenodd" clip-rule="evenodd" d="M552.782 355.89V352.16C548.903 352.005 545.065 351.089 542.341 349.893C541.368 349.468 540.871 348.374 541.151 347.346L542.095 343.872C542.443 342.6 543.825 341.941 545.042 342.452C547.746 343.586 551.081 344.485 554.683 344.485C558.419 344.485 561.205 343.217 561.205 340.613C561.205 338.267 559.051 336.873 553.857 335.476C546.45 333.446 541.131 330.21 541.131 323.676C541.131 317.774 545.437 313.27 552.91 312.067V308.337C552.91 307.137 553.88 306.165 555.077 306.165H557.262C558.459 306.165 559.432 307.137 559.432 308.337V311.685C563.021 311.83 565.633 312.443 567.708 313.174C568.771 313.546 569.35 314.693 569.057 315.784L568.185 318.993C567.85 320.232 566.531 320.911 565.33 320.457C563.422 319.735 560.722 318.98 557.215 318.98C552.782 318.98 551.515 320.822 551.515 322.47C551.515 324.5 554.176 325.897 559.939 327.673C568.172 330.148 571.59 333.572 571.59 339.727C571.59 345.372 567.409 350.45 559.304 351.718V355.89C559.304 357.09 558.334 358.062 557.137 358.062H554.949C553.752 358.062 552.782 357.09 552.782 355.89Z" fill="#B7860D"/>
<path fill-rule="evenodd" clip-rule="evenodd" d="M608.889 303.178C598.446 303.178 589.226 297.943 583.697 289.948C580.269 284.994 578.263 278.979 578.263 272.495C578.263 265.104 580.868 258.325 585.213 253.028C586.614 251.32 588.196 249.766 589.93 248.396C595.143 244.273 601.732 241.811 608.889 241.811C610.826 241.811 612.724 241.992 614.563 242.337C628.766 245.003 639.515 257.491 639.515 272.495C639.515 289.44 625.806 303.178 608.889 303.178ZM608.889 242.832C592.535 242.832 579.279 256.112 579.279 272.495C579.279 288.877 592.535 302.157 608.889 302.157C625.243 302.157 638.499 288.877 638.499 272.495C638.499 256.112 625.243 242.832 608.889 242.832Z" fill="#B7860D"/>
<path fill-rule="evenodd" clip-rule="evenodd" d="M608.885 302.156C592.531 302.156 579.275 288.875 579.275 272.493C579.275 256.11 592.531 242.83 608.885 242.83C625.24 242.83 638.496 256.11 638.496 272.493C638.496 288.875 625.24 302.156 608.885 302.156ZM609.53 248.033C595.689 248.033 584.469 259.273 584.469 273.139C584.469 287.004 595.689 298.245 609.53 298.245C623.371 298.245 634.591 287.004 634.591 273.139C634.591 259.273 623.371 248.033 609.53 248.033ZM608.885 244.355C598.218 244.355 588.607 250.285 583.795 259.831C583.607 260.203 583.759 260.657 584.13 260.846C584.239 260.901 584.354 260.927 584.469 260.927C584.745 260.927 585.012 260.775 585.143 260.511C589.696 251.478 598.794 245.867 608.885 245.867C610.494 245.867 612.109 246.012 613.681 246.299C613.731 246.308 613.777 246.312 613.823 246.312C614.181 246.312 614.494 246.053 614.559 245.69C614.632 245.28 614.362 244.886 613.951 244.812C612.29 244.509 610.586 244.355 608.885 244.355Z" fill="#FFC81A"/>
<path fill-rule="evenodd" clip-rule="evenodd" d="M584.47 260.927C584.355 260.927 584.24 260.901 584.131 260.845C583.76 260.657 583.608 260.203 583.796 259.83C588.608 250.285 598.219 244.355 608.886 244.355C610.587 244.355 612.291 244.508 613.952 244.811C614.363 244.886 614.633 245.279 614.56 245.69C614.495 246.052 614.182 246.312 613.824 246.312C613.778 246.312 613.732 246.307 613.682 246.298C612.11 246.012 610.495 245.866 608.886 245.866C598.795 245.866 589.697 251.478 585.144 260.511C585.013 260.775 584.746 260.927 584.47 260.927Z" fill="#FFE475"/>
<path fill-rule="evenodd" clip-rule="evenodd" d="M609.531 298.241C595.689 298.241 584.47 287.001 584.47 273.135C584.47 259.27 595.689 248.03 609.531 248.03C623.372 248.03 634.592 259.27 634.592 273.135C634.592 287.001 623.372 298.241 609.531 298.241Z" fill="#FFE475"/>
<path fill-rule="evenodd" clip-rule="evenodd" d="M607.071 291.803V289.071C604.226 288.957 601.417 288.286 599.421 287.41C598.707 287.097 598.342 286.296 598.549 285.543L599.24 282.999C599.493 282.066 600.506 281.583 601.397 281.957C603.378 282.789 605.825 283.447 608.463 283.447C611.199 283.447 613.242 282.517 613.242 280.611C613.242 278.891 611.663 277.869 607.858 276.846C602.43 275.359 598.532 272.988 598.532 268.2C598.532 263.877 601.687 260.577 607.164 259.694V256.962C607.164 256.083 607.874 255.37 608.752 255.37H610.354C611.229 255.37 611.943 256.083 611.943 256.962V259.414C614.571 259.52 616.485 259.971 618.005 260.506C618.785 260.78 619.209 261.619 618.992 262.417L618.357 264.77C618.11 265.678 617.143 266.175 616.265 265.842C614.867 265.312 612.887 264.761 610.318 264.761C607.071 264.761 606.141 266.108 606.141 267.317C606.141 268.804 608.091 269.827 612.315 271.129C618.344 272.942 620.85 275.452 620.85 279.961C620.85 284.098 617.788 287.816 611.847 288.746V291.803C611.847 292.682 611.137 293.394 610.262 293.394H608.657C607.782 293.394 607.071 292.682 607.071 291.803Z" fill="#B7860D"/>
<path fill-rule="evenodd" clip-rule="evenodd" d="M345.824 40.9095C345.824 40.9095 340.041 52.0402 331.43 48.6705C322.815 45.3011 314.957 39.7592 310.964 41.4898C310.964 41.4898 326.187 22.2704 345.972 36.4857L345.824 40.9095Z" fill="#FDAB76"/>
<path fill-rule="evenodd" clip-rule="evenodd" d="M363.872 11.8587C367.714 13.4777 368.891 25.7396 368.891 25.7396C368.891 25.7396 356.01 29.8945 350.731 28.1125C346.36 26.6365 334.666 17.9991 330.775 15.0726C329.969 14.4669 329.502 13.5146 329.515 12.5053C329.518 12.3833 329.607 12.2832 329.729 12.2753C332.433 12.098 360.217 10.3189 363.872 11.8587ZM363.147 68.1001C367.029 66.5817 368.525 54.3544 368.525 54.3544C368.525 54.3544 355.756 49.867 350.431 51.5116C346.023 52.8736 334.109 61.2052 330.146 64.0296C329.324 64.6141 328.833 65.5543 328.82 66.5633C328.82 66.6855 328.906 66.7877 329.028 66.7989C331.725 67.046 359.453 69.5448 363.147 68.1001ZM339.912 13.7769C339.817 13.7811 339.731 13.7393 339.679 13.6708C339.642 13.6256 339.619 13.5689 339.616 13.507C339.609 13.3511 339.728 13.2183 339.886 13.2111L339.91 13.21L339.91 13.21C340.604 13.1778 355.392 12.4924 361.838 12.4432C363.009 12.4344 364.075 13.1172 364.555 14.1822C365.48 16.2351 366.726 19.3715 367.42 22.6568C367.453 22.8101 367.354 22.96 367.203 22.9923C367.049 23.0249 366.897 22.9274 366.868 22.7738C366.147 19.3675 364.786 16.0746 364.039 14.4152C363.651 13.5544 362.789 13.0025 361.845 13.0097C355.286 13.0598 340.063 13.7696 339.912 13.7769ZM339.201 66.1327C339.119 66.1267 339.046 66.0862 339 66.0272C338.958 65.9735 338.935 65.9036 338.938 65.8298C338.951 65.6736 339.086 65.5563 339.24 65.5679L339.246 65.5682C339.601 65.594 354.636 66.6848 361.147 66.9034C362.094 66.9354 362.969 66.4062 363.377 65.5553C364.167 63.9163 365.614 60.6603 366.42 57.2728C366.456 57.1209 366.611 57.027 366.762 57.0632C366.913 57.0994 367.005 57.2523 366.972 57.4043C366.15 60.8435 364.686 64.142 363.887 65.8018C363.38 66.854 362.298 67.5091 361.127 67.4695C354.562 67.2491 339.352 66.1439 339.201 66.1327Z" fill="#B3200E"/>
<path fill-rule="evenodd" clip-rule="evenodd" d="M409.822 54.736C404.116 56.52 397.534 57.7175 390.205 57.6437C367.463 57.415 350.787 53.3062 346.076 52.0108C345.224 51.7765 344.58 51.0885 344.376 50.2274C342.771 43.4393 342.81 36.6653 344.481 29.9058C344.793 28.6345 345.8 27.6482 347.073 27.3444C352.592 26.0276 368.894 22.677 390.653 23.0227C397.922 23.138 404.431 24.4858 410.059 26.3937C413.066 37.7267 411.22 48.6237 409.822 54.736Z" fill="#FA541C"/>
<path fill-rule="evenodd" clip-rule="evenodd" d="M410.059 26.391C422.496 30.6056 430.65 37.5552 433.262 40.0075C433.775 40.4867 433.761 41.298 433.238 41.7639C430.571 44.1391 422.292 50.8367 409.822 54.7333C411.22 48.6209 413.065 37.724 410.059 26.391Z" fill="#B3200E"/>
<path fill-rule="evenodd" clip-rule="evenodd" d="M392.074 28.9057C386.183 28.8293 381.341 33.9019 381.259 40.2357C381.18 46.5695 385.887 51.766 391.778 51.8422C397.669 51.9186 402.511 46.8459 402.593 40.5122C402.675 34.1784 397.965 28.9818 392.074 28.9057Z" fill="#B3200E"/>
<path fill-rule="evenodd" clip-rule="evenodd" d="M392.346 30.9188C387.653 30.8579 383.794 34.8998 383.728 39.9468C383.663 44.9934 387.416 49.1342 392.109 49.1951C396.803 49.2558 400.662 45.2139 400.727 40.1672C400.793 35.1202 397.04 30.9798 392.346 30.9188Z" fill="#FDAB76"/>
<path fill-rule="evenodd" clip-rule="evenodd" d="M393.729 46.4765C393.798 46.5632 393.913 46.6044 394.028 46.5714C396.926 45.7232 398.978 42.9295 399.018 39.7767C399.028 38.9828 398.916 38.2009 398.682 37.4532C398.636 37.3036 398.475 37.2212 398.327 37.268C398.179 37.3148 398.094 37.4733 398.143 37.6226C398.357 38.3129 398.462 39.0359 398.452 39.7694C398.416 42.6755 396.531 45.249 393.87 46.0277C393.719 46.0715 393.633 46.2287 393.676 46.3786C393.686 46.4156 393.706 46.4482 393.729 46.4765Z" fill="#FA541C"/>
<path fill-rule="evenodd" clip-rule="evenodd" d="M370.59 32.5186C366.699 32.4682 363.501 35.8191 363.445 40.0037C363.393 44.188 366.501 47.621 370.396 47.6714C374.287 47.7218 377.484 44.3705 377.54 40.1863C377.593 36.002 374.481 32.5693 370.59 32.5186Z" fill="#B3200E"/>
<path fill-rule="evenodd" clip-rule="evenodd" d="M370.77 33.846C367.668 33.8058 365.119 36.4759 365.076 39.8104C365.033 43.1445 367.514 45.8799 370.612 45.9201C373.714 45.9603 376.263 43.2902 376.306 39.9557C376.349 36.6216 373.872 33.8862 370.77 33.846Z" fill="#FDAB76"/>
<path fill-rule="evenodd" clip-rule="evenodd" d="M371.605 44.1881C371.675 44.2751 371.793 44.3163 371.905 44.283C373.862 43.7116 375.247 41.8284 375.273 39.7036C375.28 39.1691 375.204 38.6419 375.046 38.138C375 37.9891 374.839 37.906 374.691 37.9528C374.543 38 374.457 38.1585 374.507 38.3077C374.645 38.7542 374.714 39.2215 374.707 39.6964C374.684 41.5746 373.467 43.2368 371.747 43.7393C371.599 43.7834 371.51 43.9406 371.556 44.0906C371.566 44.1275 371.582 44.1601 371.605 44.1881Z" fill="#FA541C"/>
<g opacity="0.24">
<path fill-rule="evenodd" clip-rule="evenodd" d="M345.225 29.8322C345.412 29.5827 345.768 29.5327 346.018 29.7208C346.741 30.2681 347.475 30.8567 348.192 31.4712L348.429 31.6739L348.373 32.0519C348.33 32.3613 348.044 32.5755 347.735 32.53C347.531 32.501 347.373 32.3698 347.297 32.1949C346.646 31.6449 345.988 31.1177 345.337 30.625C345.297 30.596 345.264 30.5627 345.235 30.5265C345.077 30.3291 345.067 30.0431 345.225 29.8322ZM340.442 26.8332C340.59 26.558 340.936 26.4562 341.209 26.6055C342.028 27.0507 342.857 27.5443 343.672 28.0742C343.932 28.2449 344.008 28.5948 343.84 28.8571C343.669 29.1194 343.32 29.1946 343.057 29.0242C342.268 28.5111 341.462 28.0317 340.669 27.6007C340.6 27.5634 340.544 27.5143 340.498 27.457C340.36 27.2846 340.33 27.0395 340.442 26.8332ZM346.442 37.4929L346.85 34.691C346.896 34.3816 347.182 34.1671 347.491 34.2115C347.8 34.2564 348.014 34.5437 347.968 34.8535L347.564 37.6554C347.518 37.9648 347.231 38.1793 346.922 38.1345C346.774 38.1131 346.649 38.036 346.56 37.9279C346.468 37.8096 346.422 37.6544 346.442 37.4929ZM335.226 24.6926C335.321 24.3947 335.64 24.2313 335.936 24.3272C336.827 24.6155 337.735 24.9576 338.627 25.3444C338.913 25.4686 339.044 25.8018 338.923 26.0891C338.798 26.3762 338.465 26.5083 338.179 26.3841C337.318 26.0117 336.446 25.6825 335.587 25.405C335.479 25.3698 335.387 25.3042 335.321 25.2202C335.206 25.0768 335.163 24.8804 335.226 24.6926ZM345.633 43.0971L346.037 40.2952C346.083 39.9858 346.37 39.7713 346.679 39.8157C346.988 39.8606 347.202 40.1479 347.156 40.4576L346.751 43.2596C346.705 43.569 346.419 43.7835 346.11 43.7387C345.962 43.7173 345.837 43.6405 345.751 43.5321C345.656 43.4138 345.61 43.2586 345.633 43.0971ZM329.683 23.6493C329.716 23.3383 329.992 23.1106 330.301 23.1419C331.249 23.2358 332.209 23.3847 333.153 23.5838C333.456 23.6477 333.653 23.9486 333.587 24.2547C333.525 24.5605 333.222 24.7569 332.92 24.692C332.015 24.5012 331.097 24.3588 330.19 24.2689C330.032 24.253 329.897 24.174 329.805 24.0589C329.716 23.9476 329.67 23.8026 329.683 23.6493ZM324.049 23.8359C324.012 23.5254 324.233 23.2434 324.542 23.2061C325.499 23.0908 326.469 23.0269 327.42 23.016C327.733 23.0127 327.989 23.2641 327.992 23.5762C327.996 23.8886 327.746 24.1453 327.433 24.1489C326.522 24.1591 325.595 24.2201 324.677 24.3311C324.476 24.3549 324.285 24.2695 324.167 24.1216C324.104 24.0421 324.062 23.9446 324.049 23.8359ZM343.86 49.4068C344.603 48.241 344.978 47.3651 345.047 47.1387L345.225 45.8991C345.271 45.5896 345.557 45.3748 345.866 45.4199C346.176 45.4644 346.389 45.7521 346.347 46.0622L346.169 47.2732L346.159 47.2715C346.037 48.0822 344.827 49.994 344.814 50.0151C344.646 50.2791 344.297 50.3565 344.034 50.1888C343.978 50.1542 343.936 50.112 343.896 50.0646C343.748 49.8807 343.728 49.6164 343.86 49.4068ZM318.569 25.1843C318.47 24.8874 318.634 24.5674 318.93 24.4695C319.848 24.167 320.782 23.908 321.703 23.6994C322.006 23.6299 322.309 23.823 322.378 24.1268C322.447 24.4316 322.256 24.7351 321.95 24.8037C321.065 25.0047 320.167 25.2541 319.282 25.5458C319.052 25.6215 318.809 25.5408 318.664 25.3615C318.625 25.3098 318.592 25.2505 318.569 25.1843ZM340.307 53.5849C340.985 52.9822 341.63 52.3208 342.225 51.6186C342.429 51.3807 342.784 51.352 343.024 51.5547C343.261 51.7586 343.291 52.1149 343.087 52.3531C342.455 53.0952 341.774 53.7944 341.057 54.4314C340.824 54.6393 340.465 54.6179 340.258 54.3846L340.238 54.3615C340.054 54.1279 340.08 53.7859 340.307 53.5849ZM313.411 27.4847C313.266 27.2072 313.375 26.8652 313.651 26.7202C314.506 26.271 315.381 25.8565 316.243 25.4868C316.529 25.3639 316.861 25.4976 316.983 25.785C317.108 26.0723 316.973 26.4058 316.687 26.5287C315.852 26.8863 315.006 27.2886 314.174 27.7242C313.931 27.8518 313.635 27.7839 313.47 27.5766C313.447 27.5483 313.427 27.5179 313.411 27.4847ZM335.456 57.3345C335.327 57.0504 335.449 56.7147 335.735 56.5842C336.561 56.2059 337.367 55.7594 338.13 55.2569C338.39 55.0855 338.748 55.1534 338.913 55.4196C339.084 55.681 339.011 56.0319 338.752 56.2036C337.939 56.7374 337.084 57.2119 336.206 57.6146C335.966 57.7247 335.686 57.6515 335.528 57.4535C335.502 57.4179 335.475 57.378 335.456 57.3345ZM308.632 30.5051C308.454 30.2494 308.513 29.8961 308.77 29.7162C309.559 29.1586 310.365 28.6284 311.158 28.1391C311.424 27.9753 311.78 28.0574 311.937 28.3249C312.099 28.5912 312.016 28.9402 311.75 29.1039C310.977 29.5808 310.191 30.0984 309.421 30.6425C309.174 30.8158 308.839 30.7654 308.655 30.5334L308.632 30.5051ZM329.999 58.7409C329.953 58.4315 330.163 58.1435 330.473 58.0973C330.67 58.068 330.867 58.0374 331.065 58.0041C331.778 57.8861 332.486 57.7279 333.166 57.5329C333.466 57.4475 333.782 57.6215 333.864 57.9224C333.949 58.2229 333.775 58.5363 333.476 58.6223C332.755 58.8289 332.005 58.9969 331.252 59.1215C331.045 59.1554 330.841 59.1874 330.64 59.2177C330.433 59.2484 330.236 59.1633 330.114 59.0108C330.055 58.9353 330.012 58.8434 329.999 58.7409ZM324.361 58.9528C324.374 58.6404 324.637 58.3982 324.95 58.4117C325.848 58.4512 326.779 58.4427 327.716 58.3873C328.025 58.3689 328.295 58.6061 328.311 58.9188C328.331 59.2309 328.094 59.4988 327.782 59.5176C326.805 59.5756 325.838 59.5841 324.9 59.5433C324.733 59.536 324.581 59.4543 324.486 59.3311C324.404 59.2279 324.354 59.0955 324.361 58.9528ZM304.287 33.2586C304.928 32.6964 305.579 32.1487 306.227 31.6307L306.481 31.4287C306.724 31.2353 307.079 31.2758 307.273 31.5197V31.5213C307.467 31.7668 307.428 32.123 307.181 32.3168L306.934 32.5155C306.3 33.0226 305.658 33.5597 305.03 34.111C304.796 34.317 304.438 34.2929 304.234 34.0577L304.217 34.0379C304.03 33.8029 304.056 33.4589 304.287 33.2586ZM317.108 52.8069C317.023 52.506 317.197 52.1933 317.5 52.1083C318.371 51.8611 319 51.466 319.414 51.2044C319.592 51.094 319.733 51.006 319.845 50.952C319.907 50.923 319.96 50.9009 320.006 50.8851C320.299 50.7842 320.605 50.9493 320.707 51.2456C320.805 51.5415 320.631 51.871 320.338 51.9718C320.253 52.0124 320.147 52.0809 320.016 52.1636C319.575 52.4414 318.835 52.9067 317.806 53.1983C317.582 53.2619 317.348 53.1795 317.21 53.0069C317.164 52.9495 317.131 52.882 317.108 52.8069ZM318.799 57.9998C318.875 57.696 319.177 57.5088 319.483 57.5816C320.286 57.7754 321.174 57.9771 322.203 58.1375C322.512 58.186 322.723 58.476 322.677 58.7844C322.628 59.0932 322.338 59.305 322.029 59.2569C320.96 59.0902 320.046 58.8823 319.217 58.6832C319.092 58.6526 318.983 58.5811 318.907 58.4862C318.802 58.3547 318.756 58.1771 318.799 57.9998ZM316.332 55.2028C317.088 54.4162 317.74 53.7256 318.266 53.1492C318.477 52.9186 318.835 52.9021 319.065 53.1133C319.289 53.3259 319.312 53.6824 319.102 53.9134C318.569 54.4973 317.911 55.1956 317.144 55.9894C316.927 56.2144 316.572 56.2207 316.345 56.0035L316.296 55.9492C316.121 55.7304 316.131 55.4101 316.332 55.2028ZM300.168 37.2099C300.826 36.5199 301.504 35.8404 302.181 35.1899C302.408 34.9737 302.764 34.9807 302.981 35.2067C303.201 35.4331 303.191 35.791 302.964 36.0074C302.3 36.6471 301.632 37.315 300.981 37.9938C300.767 38.2195 300.409 38.2271 300.185 38.0106L300.132 37.9546C299.958 37.7365 299.968 37.4171 300.168 37.2099ZM311.608 51.9165C311.724 51.6265 312.053 51.4851 312.342 51.6011C313.24 51.961 314.108 52.1916 314.921 52.2872C315.23 52.3234 315.454 52.6055 315.418 52.9156C315.378 53.2263 315.098 53.4484 314.789 53.4122C313.878 53.3051 312.914 53.0494 311.924 52.653C311.829 52.6151 311.753 52.5551 311.694 52.4813C311.569 52.3271 311.53 52.1129 311.608 51.9165ZM314.352 57.2257C314.516 57.063 314.753 57.0188 314.954 57.0949C315.447 56.9443 315.996 56.9094 316.651 56.9809C316.96 57.0149 317.184 57.294 317.151 57.6047C317.118 57.9154 316.839 58.1402 316.529 58.1062C315.737 58.0199 315.194 58.126 314.707 58.4605L313.987 57.5932L314.352 57.2257ZM306.655 49.2075C306.786 48.9228 307.122 48.7969 307.405 48.9267C308.05 49.22 308.668 49.5614 309.244 49.9403C309.47 50.0906 309.694 50.2316 309.911 50.3651C310.178 50.5272 310.263 50.8755 310.102 51.1428C309.941 51.4103 309.592 51.4957 309.326 51.3336C309.096 51.1932 308.859 51.0439 308.622 50.8864C308.096 50.5394 307.527 50.227 306.938 49.9571C306.852 49.9192 306.783 49.8632 306.731 49.796C306.602 49.6345 306.566 49.4082 306.655 49.2075ZM296.382 41.4779C296.991 40.7384 297.616 40.0082 298.234 39.3083C298.442 39.0746 298.8 39.0532 299.034 39.2612C299.267 39.4707 299.287 39.8269 299.08 40.0606C298.468 40.7499 297.856 41.469 297.257 42.1972C297.057 42.4391 296.702 42.4733 296.461 42.2746C296.429 42.2489 296.402 42.2209 296.379 42.1909C296.215 41.986 296.211 41.6878 296.382 41.4779ZM301.149 48.0426C301.172 47.7309 301.445 47.4989 301.757 47.5243C302.757 47.606 303.724 47.7592 304.632 47.9784C304.938 48.0512 305.125 48.3573 305.05 48.6621C304.977 48.9659 304.671 49.1528 304.369 49.0793C303.517 48.8737 302.609 48.7303 301.665 48.6532C301.504 48.64 301.362 48.56 301.27 48.4427C301.182 48.3336 301.135 48.1925 301.149 48.0426ZM295.511 48.3932C295.465 48.0841 295.679 47.7961 295.988 47.751C296.961 47.6076 297.928 47.5147 298.859 47.4745C299.172 47.4607 299.435 47.7025 299.451 48.0156C299.465 48.328 299.221 48.5923 298.909 48.6058C298.017 48.6443 297.09 48.7336 296.152 48.8714C295.945 48.902 295.751 48.8163 295.629 48.6644C295.567 48.5886 295.527 48.4964 295.511 48.3932ZM292.922 46.0118C293.462 45.2463 294.031 44.4729 294.613 43.7123C294.804 43.4642 295.156 43.4168 295.406 43.6069C295.652 43.7977 295.702 44.1519 295.511 44.4007C294.938 45.1497 294.379 45.9122 293.846 46.6659C293.665 46.9209 293.31 46.9815 293.057 46.801C293.014 46.7693 292.975 46.7331 292.942 46.6922C292.787 46.5001 292.774 46.2223 292.922 46.0118ZM290.873 49.1024C290.873 49.1024 291.024 48.845 291.324 48.3814C291.491 48.1181 291.84 48.0413 292.103 48.21C292.218 48.2848 292.297 48.3942 292.337 48.5155C292.58 48.4496 292.856 48.3774 293.159 48.3036C293.462 48.2298 293.767 48.4169 293.84 48.7204C293.915 49.0243 293.728 49.3301 293.425 49.4042C292.57 49.6121 291.965 49.7983 291.676 49.8876C291.593 49.913 291.534 49.9308 291.504 49.9387L290.159 50.3025L290.873 49.1024Z" fill="#FA541C"/>
<path fill-rule="evenodd" clip-rule="evenodd" d="M283.273 48.6723L279.563 49.5825C279.218 49.6678 278.869 49.4553 278.784 49.1076C278.698 48.7603 278.909 48.4097 279.257 48.3247L279.3 48.3141L282.915 47.4125L282.958 47.4013C283.31 47.314 283.665 47.5276 283.75 47.8785C283.839 48.2294 283.625 48.585 283.273 48.6723Z" fill="#FA541C"/>
<path fill-rule="evenodd" clip-rule="evenodd" d="M275.809 50.2334L272.019 50.6437C271.671 50.6809 271.358 50.4295 271.322 50.0812C271.286 49.7332 271.536 49.4208 271.885 49.3832L271.921 49.379L275.628 48.9638L275.667 48.9595C276.019 48.9203 276.335 49.1737 276.374 49.5253C276.414 49.8769 276.161 50.1939 275.812 50.2331L275.809 50.2334Z" fill="#FA541C"/>
<path fill-rule="evenodd" clip-rule="evenodd" d="M268.213 50.8276L264.414 50.7993C264.072 50.7966 263.796 50.5172 263.799 50.1745C263.802 49.8321 264.082 49.5563 264.421 49.5589L264.454 49.5592L268.187 49.5731L268.223 49.5734C268.568 49.5747 268.848 49.8565 268.845 50.2028C268.845 50.5491 268.562 50.8289 268.217 50.8276H268.213Z" fill="#FA541C"/>
<path fill-rule="evenodd" clip-rule="evenodd" d="M260.618 50.5749L256.842 50.1758C256.507 50.1405 256.267 49.842 256.303 49.5092C256.339 49.176 256.635 48.9345 256.967 48.9697L256.994 48.972L260.717 49.352L260.747 49.355C261.082 49.3892 261.326 49.6901 261.293 50.0272C261.257 50.3643 260.957 50.6095 260.622 50.5752L260.618 50.5749Z" fill="#FA541C"/>
<path fill-rule="evenodd" clip-rule="evenodd" d="M253.087 49.6162L249.357 48.9077C249.038 48.8467 248.827 48.5366 248.886 48.215C248.949 47.8934 249.258 47.6825 249.577 47.7435L249.597 47.7471L253.284 48.4338L253.307 48.4378C253.633 48.4984 253.847 48.8115 253.787 49.137C253.725 49.4626 253.412 49.6768 253.087 49.6162Z" fill="#FA541C"/>
<path fill-rule="evenodd" clip-rule="evenodd" d="M245.657 48.0639L241.993 47.0984C241.684 47.0173 241.5 46.7006 241.582 46.3915C241.661 46.0824 241.977 45.8976 242.286 45.9786L245.934 46.9257L245.953 46.9306C246.266 47.0117 246.453 47.331 246.371 47.6444C246.292 47.9574 245.973 48.1456 245.661 48.0645L245.657 48.0639Z" fill="#FA541C"/>
<path fill-rule="evenodd" clip-rule="evenodd" d="M238.358 46.0214L234.759 44.841C234.463 44.7438 234.302 44.4248 234.398 44.1282C234.496 43.8317 234.815 43.6702 235.111 43.7671L235.125 43.7714L238.697 44.929L238.713 44.9336C239.012 45.0311 239.177 45.3534 239.078 45.6539C238.983 45.9545 238.66 46.1192 238.361 46.022L238.358 46.0214Z" fill="#FA541C"/>
<path fill-rule="evenodd" clip-rule="evenodd" d="M231.195 43.567L227.662 42.2051C227.379 42.0956 227.238 41.777 227.346 41.4929C227.455 41.2089 227.774 41.0672 228.057 41.1766L228.067 41.1802L231.58 42.5197L231.593 42.5244C231.879 42.6341 232.024 42.9564 231.915 43.2444C231.807 43.5327 231.484 43.677 231.198 43.5673L231.195 43.567Z" fill="#FA541C"/>
<path fill-rule="evenodd" clip-rule="evenodd" d="M224.162 40.7612L220.695 39.245C220.422 39.1261 220.3 38.8094 220.419 38.5379C220.537 38.2657 220.853 38.1415 221.122 38.2601L221.132 38.2637L224.583 39.7584L224.596 39.7631C224.869 39.882 224.997 40.2023 224.879 40.4784C224.76 40.7542 224.438 40.8811 224.165 40.7622L224.162 40.7612Z" fill="#FA541C"/>
<path fill-rule="evenodd" clip-rule="evenodd" d="M217.26 37.6592L213.856 36.0093C213.596 35.8834 213.487 35.5703 213.612 35.31C213.737 35.05 214.05 34.9409 214.31 35.0668L214.316 35.0701L217.711 36.6989L217.721 36.7032C217.984 36.8298 218.096 37.1464 217.967 37.4107C217.842 37.6746 217.527 37.7864 217.263 37.6598L217.26 37.6592Z" fill="#FA541C"/>
<path fill-rule="evenodd" clip-rule="evenodd" d="M210.481 34.3013L207.136 32.5351C206.888 32.4036 206.792 32.0955 206.923 31.8464C207.054 31.5976 207.362 31.502 207.61 31.6332L207.616 31.6361L210.961 33.3866C211.213 33.5187 211.311 33.8308 211.179 34.0835C211.047 34.3363 210.736 34.4345 210.483 34.3023L210.481 34.3013Z" fill="#FA541C"/>
<path fill-rule="evenodd" clip-rule="evenodd" d="M203.819 30.7151L200.53 28.845C200.292 28.7099 200.209 28.4074 200.344 28.1692C200.479 27.9312 200.781 27.8475 201.018 27.983L201.023 27.9853L204.306 29.8359L204.313 29.8395C204.554 29.9756 204.64 30.2821 204.504 30.5239C204.368 30.7658 204.062 30.8518 203.82 30.7154L203.819 30.7151Z" fill="#FA541C"/>
<path fill-rule="evenodd" clip-rule="evenodd" d="M197.267 26.9292L194.03 24.9712C193.799 24.8318 193.725 24.5313 193.864 24.3003C194.004 24.0693 194.304 23.9945 194.534 24.1345L194.539 24.1375L197.767 26.0853L197.773 26.0886C198.005 26.2287 198.079 26.5302 197.94 26.7621C197.8 26.9941 197.499 27.0689 197.267 26.9292Z" fill="#FA541C"/>
<path fill-rule="evenodd" clip-rule="evenodd" d="M190.818 22.9707L187.633 20.929C187.408 20.7846 187.342 20.4848 187.486 20.259C187.63 20.0333 187.93 19.9677 188.155 20.1121L188.16 20.115L191.336 22.1469L191.342 22.1502C191.568 22.2948 191.634 22.596 191.49 22.8224C191.345 23.0491 191.044 23.1153 190.818 22.9707Z" fill="#FA541C"/>
<path fill-rule="evenodd" clip-rule="evenodd" d="M184.473 18.8477L181.339 16.7292C181.119 16.5806 181.061 16.2814 181.209 16.0609C181.358 15.8408 181.657 15.7828 181.876 15.9314L181.881 15.9344L185.007 18.0433L185.012 18.0466C185.233 18.1956 185.291 18.4958 185.143 18.7172C184.994 18.9383 184.694 18.9966 184.473 18.8477Z" fill="#FA541C"/>
<path fill-rule="evenodd" clip-rule="evenodd" d="M178.231 14.5736L175.149 12.3843C174.935 12.2317 174.884 11.9338 175.036 11.7186C175.189 11.5034 175.486 11.4527 175.701 11.6053L175.705 11.6082L178.78 13.788L178.784 13.7913C179 13.9442 179.051 14.2434 178.899 14.4593C178.746 14.6754 178.447 14.7265 178.231 14.5736Z" fill="#FA541C"/>
<path fill-rule="evenodd" clip-rule="evenodd" d="M172.054 10.2701L168.835 8.35785L168.809 8.34236C168.584 8.20891 168.51 7.9186 168.644 7.69353C168.777 7.46847 169.066 7.394 169.291 7.52745L172.563 9.46768C172.789 9.60114 172.863 9.89277 172.73 10.1188C172.597 10.3449 172.306 10.4197 172.08 10.2859L172.054 10.2701Z" fill="#FA541C"/>
<path fill-rule="evenodd" clip-rule="evenodd" d="M165.502 6.65451L162.04 5.1542C161.802 5.05105 161.693 4.77459 161.796 4.53667C161.898 4.29843 162.174 4.18869 162.412 4.29183L165.903 5.80039C166.142 5.90386 166.252 6.18099 166.149 6.42022C166.046 6.65946 165.769 6.76952 165.53 6.66638L165.502 6.65451Z" fill="#FA541C"/>
<path fill-rule="evenodd" clip-rule="evenodd" d="M158.545 3.89748L154.949 2.85685L154.92 2.84861C154.674 2.77743 154.531 2.51909 154.603 2.27162C154.674 2.02447 154.931 1.88179 155.178 1.9533L158.832 3.00645C159.079 3.07796 159.223 3.33696 159.151 3.58542C159.08 3.83388 158.821 3.97723 158.574 3.90572L158.545 3.89748Z" fill="#FA541C"/>
<path fill-rule="evenodd" clip-rule="evenodd" d="M151.295 2.04741L147.597 1.47108L147.568 1.46679C147.317 1.42725 147.144 1.19131 147.183 0.938897C147.222 0.686812 147.458 0.513812 147.71 0.553026L151.466 1.13463C151.719 1.17352 151.892 1.41077 151.853 1.66418C151.814 1.91758 151.577 2.09124 151.325 2.0517L151.295 2.04741Z" fill="#FA541C"/>
<path fill-rule="evenodd" clip-rule="evenodd" d="M143.87 1.13242L140.128 1.02961L140.099 1.02895C139.847 1.0217 139.648 0.810802 139.654 0.557728C139.661 0.304655 139.871 0.105293 140.124 0.111884L143.924 0.212718C144.177 0.219308 144.377 0.430862 144.371 0.685254C144.364 0.939316 144.153 1.13967 143.899 1.13308L143.87 1.13242Z" fill="#FA541C"/>
<path fill-rule="evenodd" clip-rule="evenodd" d="M136.386 1.16531L132.662 1.538L132.633 1.54097C132.383 1.56601 132.161 1.38379 132.136 1.13368C132.111 0.8839 132.293 0.661143 132.542 0.636099L136.324 0.253852C136.574 0.228149 136.798 0.411364 136.823 0.662131C136.848 0.913228 136.666 1.13697 136.415 1.16202L136.386 1.16531Z" fill="#FA541C"/>
<path fill-rule="evenodd" clip-rule="evenodd" d="M125.322 2.99165L125.294 2.99791C125.051 3.05393 124.81 2.90268 124.754 2.66015C124.698 2.41729 124.848 2.17542 125.091 2.1194L128.793 1.25902C129.036 1.20234 129.279 1.35425 129.336 1.59777C129.392 1.84129 129.24 2.0848 128.997 2.14115L125.322 2.99165Z" fill="#FA541C"/>
<path fill-rule="evenodd" clip-rule="evenodd" d="M121.735 4.06691L118.198 5.37775C117.966 5.46342 117.709 5.34513 117.624 5.1138C117.538 4.88182 117.656 4.62479 117.887 4.53911L121.451 3.21476C121.682 3.12843 121.94 3.24705 122.027 3.47937C122.113 3.71201 121.994 3.97036 121.762 4.05669L121.735 4.06691Z" fill="#FA541C"/>
<path fill-rule="evenodd" clip-rule="evenodd" d="M114.806 6.89097L111.51 8.65886L111.481 8.67435C111.266 8.78968 110.998 8.70862 110.882 8.49278C110.767 8.27694 110.848 8.00838 111.063 7.89305L114.415 6.09056C114.632 5.97391 114.901 6.0553 115.017 6.27212C115.133 6.48862 115.052 6.7585 114.836 6.87482L114.806 6.89097Z" fill="#FA541C"/>
<path fill-rule="evenodd" clip-rule="evenodd" d="M108.347 10.6557L105.319 12.8588L105.297 12.8753C105.101 13.018 104.826 12.9745 104.684 12.7781C104.541 12.5814 104.585 12.3069 104.781 12.1639L107.852 9.92478C108.049 9.78143 108.324 9.82493 108.468 10.022C108.611 10.2194 108.567 10.4955 108.371 10.6392L108.347 10.6557Z" fill="#FA541C"/>
<path fill-rule="evenodd" clip-rule="evenodd" d="M102.428 15.2481L99.6867 17.8036L99.6683 17.821C99.4923 17.9848 99.2167 17.9749 99.0532 17.7986C98.8894 17.6223 98.8993 17.3468 99.0749 17.1827L101.851 14.59C102.028 14.4249 102.304 14.4348 102.469 14.6115C102.633 14.7884 102.624 15.0655 102.447 15.2306L102.428 15.2481Z" fill="#FA541C"/>
<path fill-rule="evenodd" clip-rule="evenodd" d="M97.0977 20.514L94.6649 23.3693L94.6488 23.3881C94.4942 23.57 94.2218 23.5914 94.0406 23.4362C93.8593 23.2813 93.8376 23.0088 93.9922 22.8275L96.4546 19.932C96.6095 19.7491 96.8829 19.7274 97.0654 19.8829C97.2473 20.0385 97.2694 20.3123 97.1141 20.4948L97.0977 20.514Z" fill="#FA541C"/>
<path fill-rule="evenodd" clip-rule="evenodd" d="M90.3084 29.4773L90.2943 29.4981C90.1624 29.6948 89.8969 29.7472 89.7009 29.6151C89.5045 29.4833 89.4522 29.2177 89.5838 29.0213L91.6971 25.8602C91.8294 25.6628 92.0961 25.61 92.2931 25.7422C92.4902 25.8747 92.5428 26.1416 92.4109 26.3396L90.3084 29.4773Z" fill="#FA541C"/>
<path fill-rule="evenodd" clip-rule="evenodd" d="M88.4103 32.7132L86.717 36.0601L86.7045 36.0845C86.5989 36.2934 86.344 36.3771 86.1351 36.271C85.9262 36.1649 85.8427 35.9102 85.9486 35.7009L87.663 32.3039C87.7689 32.0936 88.0252 32.0093 88.2347 32.1157C88.4449 32.2218 88.5287 32.4785 88.4228 32.6888L88.4103 32.7132Z" fill="#FA541C"/>
<path fill-rule="evenodd" clip-rule="evenodd" d="M85.2459 39.5111L84.018 43.0525L84.0082 43.0811C83.9319 43.3009 83.6927 43.4169 83.4737 43.3405C83.2543 43.2647 83.1381 43.0251 83.2144 42.8057L84.4585 39.206C84.5348 38.9852 84.7752 38.8685 84.9953 38.9446C85.2157 39.0211 85.3321 39.262 85.2558 39.4824L85.2459 39.5111Z" fill="#FA541C"/>
<path fill-rule="evenodd" clip-rule="evenodd" d="M83.0561 46.6742L82.3828 50.3576L82.3766 50.3916C82.3351 50.618 82.1184 50.7679 81.8924 50.7264C81.6661 50.6848 81.5164 50.468 81.5579 50.2416L82.2397 46.4903C82.2812 46.2626 82.4989 46.1117 82.7259 46.1533C82.9532 46.1948 83.1038 46.4129 83.0624 46.6406L83.0561 46.6742Z" fill="#FA541C"/>
<path fill-rule="evenodd" clip-rule="evenodd" d="M82.0205 54.0815L81.9971 57.8206L81.9968 57.8592C81.9955 58.0875 81.81 58.2711 81.582 58.2701C81.3544 58.2684 81.1708 58.0829 81.1725 57.8545L81.1922 54.0387C81.1935 53.8093 81.3797 53.6245 81.6087 53.6258C81.8376 53.6271 82.0221 53.8136 82.0208 54.0426L82.0205 54.0815Z" fill="#FA541C"/>
<path fill-rule="evenodd" clip-rule="evenodd" d="M82.3303 61.5444L83.0293 65.2143L83.0372 65.2548C83.0793 65.4769 82.9342 65.6911 82.7125 65.7336C82.4908 65.7761 82.277 65.6308 82.2346 65.4087L81.5165 61.6581C81.4738 61.4353 81.6195 61.2198 81.8419 61.177C82.0649 61.1341 82.2797 61.2801 82.3224 61.5032L82.3303 61.5444Z" fill="#FA541C"/>
<path fill-rule="evenodd" clip-rule="evenodd" d="M85.5258 72.2463L85.5413 72.2842C85.6268 72.4911 85.5288 72.7284 85.3222 72.8141C85.1157 72.8997 84.8792 72.8022 84.7936 72.5949L83.3312 69.0677C83.2447 68.8601 83.3431 68.6215 83.5506 68.5352C83.7582 68.4489 83.996 68.5474 84.0822 68.755L85.5258 72.2463Z" fill="#FA541C"/>
<path fill-rule="evenodd" clip-rule="evenodd" d="M87.34 75.4845C88.0314 76.508 88.8143 77.4679 89.6882 78.3359C89.8458 78.4921 89.8468 78.7468 89.6909 78.9046C89.5346 79.0625 89.2807 79.0638 89.1231 78.9076C88.2087 78.0011 87.3913 77.0007 86.6716 75.9376C86.5466 75.7531 86.5947 75.502 86.7792 75.3765C86.9634 75.2512 87.2147 75.3 87.34 75.4845Z" fill="#FA541C"/>
<path fill-rule="evenodd" clip-rule="evenodd" d="M92.5709 80.6329C93.6106 81.2867 94.7254 81.8192 95.8871 82.2159C96.095 82.2868 96.2062 82.5131 96.1351 82.7217C96.0644 82.93 95.8388 83.0414 95.6306 82.9705C94.4102 82.555 93.2386 81.9968 92.1466 81.3117C91.9591 81.1944 91.9025 80.9472 92.0196 80.7597C92.1367 80.5722 92.3837 80.5152 92.5709 80.6329Z" fill="#FA541C"/>
<path fill-rule="evenodd" clip-rule="evenodd" d="M99.4792 82.9961C100.701 83.122 101.938 83.1124 103.162 82.9783C103.378 82.9546 103.573 83.1111 103.597 83.3276C103.62 83.5444 103.464 83.7392 103.248 83.7632C101.972 83.9043 100.679 83.9158 99.3989 83.7856C99.1812 83.7632 99.0227 83.5685 99.045 83.3507C99.0671 83.1328 99.2615 82.974 99.4792 82.9961Z" fill="#FA541C"/>
<path fill-rule="evenodd" clip-rule="evenodd" d="M106.772 82.2163C107.949 81.8473 109.092 81.3678 110.185 80.7921C110.376 80.6916 110.612 80.7654 110.713 80.9566C110.813 81.1474 110.74 81.3836 110.549 81.4841C109.416 82.0822 108.23 82.5811 107.007 82.966C106.8 83.0309 106.58 82.9159 106.515 82.709C106.45 82.502 106.566 82.2816 106.772 82.2163Z" fill="#FA541C"/>
<path fill-rule="evenodd" clip-rule="evenodd" d="M113.302 78.7913C114.28 78.0367 115.196 77.1991 116.036 76.2916C116.182 76.135 116.426 76.1258 116.583 76.2715C116.739 76.4168 116.749 76.6619 116.603 76.8185C115.735 77.7579 114.788 78.6256 113.776 79.4082C113.606 79.539 113.362 79.5077 113.231 79.3377C113.1 79.1673 113.132 78.9225 113.302 78.7913Z" fill="#FA541C"/>
<path fill-rule="evenodd" clip-rule="evenodd" d="M118.325 73.3735L119.265 71.7694C119.598 71.2458 119.846 70.6734 120.124 70.1181L120.135 70.0957C120.229 69.9066 120.459 69.8301 120.648 69.9247C120.837 70.0196 120.914 70.2496 120.819 70.4384C120.534 71.0105 120.28 71.5974 119.938 72.1407L118.967 73.7986C118.86 73.9818 118.625 74.0434 118.441 73.9356C118.259 73.8282 118.197 73.5926 118.304 73.4091L118.325 73.3735Z" fill="#FA541C"/>
<path fill-rule="evenodd" clip-rule="evenodd" d="M121.419 66.6316C121.757 65.439 121.996 64.2188 122.121 62.9871C122.143 62.7785 122.329 62.6266 122.537 62.648C122.745 62.6687 122.897 62.8549 122.876 63.0635C122.747 64.342 122.5 65.6068 122.151 66.8402C122.094 67.0428 121.883 67.1608 121.681 67.1031C121.478 67.0458 121.361 66.8346 121.419 66.6316Z" fill="#FA541C"/>
<path fill-rule="evenodd" clip-rule="evenodd" d="M122.147 59.2907C122.037 58.0599 121.806 56.8407 121.461 55.654C121.403 55.4547 121.517 55.2461 121.716 55.1881C121.915 55.1298 122.123 55.2438 122.181 55.4431C122.541 56.6756 122.782 57.9432 122.898 59.2228C122.917 59.4304 122.764 59.6143 122.556 59.633C122.349 59.6518 122.166 59.4983 122.147 59.2907Z" fill="#FA541C"/>
<path fill-rule="evenodd" clip-rule="evenodd" d="M120.095 52.2114C119.535 51.1081 118.876 50.055 118.136 49.0621C118.013 48.8974 118.047 48.6641 118.211 48.5415C118.375 48.4182 118.608 48.4519 118.731 48.6163C119.496 49.6411 120.179 50.7295 120.76 51.8723C120.854 52.0562 120.781 52.2816 120.597 52.3752C120.413 52.4691 120.188 52.3956 120.095 52.2114Z" fill="#FA541C"/>
<path fill-rule="evenodd" clip-rule="evenodd" d="M115.687 46.266C114.801 45.3974 113.851 44.5934 112.852 43.8556C112.688 43.7346 112.654 43.504 112.774 43.3402C112.895 43.1764 113.125 43.1415 113.288 43.2621C114.314 44.0183 115.291 44.8435 116.204 45.7365C116.349 45.8795 116.352 46.1138 116.21 46.2601C116.067 46.4064 115.833 46.409 115.687 46.266Z" fill="#FA541C"/>
<path fill-rule="evenodd" clip-rule="evenodd" d="M109.723 41.8428C108.637 41.2375 107.515 40.6977 106.365 40.2235C106.179 40.1471 106.091 39.9339 106.167 39.7477C106.243 39.5615 106.456 39.4722 106.642 39.549C107.818 40.0324 108.966 40.5834 110.079 41.2025C110.255 41.3007 110.319 41.5241 110.221 41.7008C110.122 41.8777 109.899 41.9413 109.723 41.8428Z" fill="#FA541C"/>
<path fill-rule="evenodd" clip-rule="evenodd" d="M102.841 38.9959C101.647 38.648 100.413 38.4226 99.2014 38.1293L99.1724 38.1224C98.9744 38.0743 98.8524 37.8742 98.9004 37.6759C98.9481 37.4772 99.1478 37.3549 99.3461 37.403H99.3474C100.578 37.7049 101.817 37.9471 103.04 38.2983C103.233 38.3527 103.345 38.5531 103.291 38.7458C103.236 38.9386 103.036 39.051 102.844 38.9969L102.841 38.9959Z" fill="#FA541C"/>
<path fill-rule="evenodd" clip-rule="evenodd" d="M95.5031 37.5258L91.773 37.166L91.7484 37.1637C91.5339 37.1429 91.3767 36.9518 91.3974 36.7366C91.4181 36.5218 91.6089 36.3643 91.8233 36.3847L91.8257 36.385L95.6024 36.7706C95.8113 36.792 95.9632 36.9788 95.9419 37.1881C95.9208 37.3963 95.7356 37.5483 95.5277 37.5282L95.5031 37.5258Z" fill="#FA541C"/>
<path fill-rule="evenodd" clip-rule="evenodd" d="M88.026 37.0378L84.2781 37.13L84.2548 37.1307C84.0278 37.1363 83.839 36.9564 83.8334 36.7287C83.8278 36.5013 84.0074 36.3122 84.2347 36.3066H84.237L88.0319 36.2341C88.2533 36.2301 88.4361 36.4064 88.4404 36.6282C88.4444 36.8493 88.2697 37.0318 88.0493 37.0371L88.026 37.0378Z" fill="#FA541C"/>
<path fill-rule="evenodd" clip-rule="evenodd" d="M80.5447 37.4336L76.8298 37.9407L76.8067 37.9437C76.5702 37.976 76.3522 37.8102 76.3199 37.5729C76.2877 37.336 76.4535 37.1179 76.69 37.0856L76.6923 37.0853L80.4555 36.5929C80.6864 36.5626 80.8983 36.7257 80.9285 36.9571C80.9585 37.1877 80.797 37.399 80.5674 37.4303L80.5447 37.4336Z" fill="#FA541C"/>
<path fill-rule="evenodd" clip-rule="evenodd" d="M73.1467 38.6425L69.5071 39.5418L69.4841 39.5477C69.241 39.6077 68.9953 39.4591 68.9355 39.2156C68.8756 38.972 69.0239 38.7259 69.267 38.6662L69.2693 38.6656L72.9599 37.7755C73.1977 37.7179 73.4368 37.8645 73.494 38.1028C73.5509 38.34 73.4059 38.5786 73.1697 38.6369L73.1467 38.6425Z" fill="#FA541C"/>
<path fill-rule="evenodd" clip-rule="evenodd" d="M65.9195 40.6342L62.398 41.917L62.3736 41.9259C62.1276 42.0156 61.8555 41.8887 61.7661 41.6419C61.6766 41.3954 61.8036 41.1229 62.0496 41.0332L62.0523 41.0326L65.6287 39.7521C65.8698 39.6654 66.1349 39.7913 66.2211 40.0331C66.3069 40.2737 66.1826 40.5383 65.9431 40.6256L65.9195 40.6342Z" fill="#FA541C"/>
<path fill-rule="evenodd" clip-rule="evenodd" d="M58.9559 43.3934L55.6047 45.0647L55.5784 45.0779C55.3337 45.2001 55.0364 45.1003 54.9146 44.8551C54.7929 44.61 54.8926 44.3124 55.137 44.1902L55.1396 44.1892L58.5519 42.5109C58.7921 42.3926 59.0825 42.4921 59.2003 42.7327C59.3177 42.9722 59.2197 43.2619 58.9815 43.3809L58.9559 43.3934Z" fill="#FA541C"/>
<path fill-rule="evenodd" clip-rule="evenodd" d="M52.3638 46.934L49.2459 49.0008L49.2209 49.0176C48.9831 49.1751 48.6633 49.1098 48.5061 48.8716C48.3489 48.6337 48.414 48.3134 48.6515 48.1559L48.6538 48.1542L51.8342 46.0713C52.0677 45.9181 52.3809 45.984 52.5335 46.2179C52.6858 46.4509 52.621 46.7633 52.3894 46.9169L52.3638 46.934Z" fill="#FA541C"/>
<path fill-rule="evenodd" clip-rule="evenodd" d="M46.2449 51.2425L43.3559 53.6322L43.3368 53.6483C43.1082 53.8371 42.7697 53.8048 42.5813 53.5758C42.3925 53.3468 42.4247 53.0077 42.6533 52.8189L42.6556 52.8169L45.5965 50.4114C45.8219 50.2275 46.1531 50.2608 46.337 50.4865C46.5202 50.7113 46.4876 51.0418 46.2646 51.226L46.2449 51.2425Z" fill="#FA541C"/>
<path fill-rule="evenodd" clip-rule="evenodd" d="M37.8794 58.7959C37.6594 59.012 37.3064 59.0084 37.0906 58.7879C36.8752 58.5675 36.8785 58.2139 37.0985 57.9981L37.1008 57.9958L39.8233 55.3517C40.0404 55.1408 40.3868 55.1464 40.5973 55.3635C40.8068 55.58 40.8022 55.9257 40.5874 56.1366L37.8794 58.7959Z" fill="#FA541C"/>
<path fill-rule="evenodd" clip-rule="evenodd" d="M35.3161 61.5086L32.8291 64.3247L32.8166 64.3386C32.6051 64.5781 32.24 64.6005 32.0009 64.3887C31.7621 64.1768 31.7397 63.811 31.9512 63.5718L31.9532 63.5695L34.48 60.7382C34.6889 60.5039 35.0477 60.4838 35.2816 60.6931C35.5148 60.902 35.5355 61.2598 35.3286 61.4941L35.3161 61.5086Z" fill="#FA541C"/>
<path fill-rule="evenodd" clip-rule="evenodd" d="M30.4322 67.22L28.1228 70.1858L28.1122 70.1996C27.9096 70.4599 27.534 70.5064 27.2738 70.3031C27.0136 70.0998 26.9673 69.7238 27.1702 69.4631L27.1722 69.4605L29.5184 66.4799C29.7191 66.2245 30.0888 66.1807 30.3434 66.382C30.5973 66.5827 30.6417 66.9511 30.443 67.2062L30.4322 67.22Z" fill="#FA541C"/>
<path fill-rule="evenodd" clip-rule="evenodd" d="M25.8986 73.2164L23.7566 76.3067L23.7471 76.3202C23.5527 76.6006 23.1681 76.6701 22.8882 76.4754C22.6083 76.2806 22.5389 75.8954 22.7333 75.615L22.7353 75.6124L24.9121 72.5063C25.1049 72.2314 25.4838 72.1649 25.7581 72.358C26.0318 72.5508 26.0982 72.9281 25.9081 73.2029L25.8986 73.2164Z" fill="#FA541C"/>
<path fill-rule="evenodd" clip-rule="evenodd" d="M21.6933 79.4547L19.7128 82.6524L19.7046 82.6659C19.5191 82.9651 19.1263 83.0574 18.8277 82.8715C18.5287 82.686 18.4369 82.2925 18.6221 81.993L18.6237 81.99L20.6378 78.7762C20.822 78.4822 21.2091 78.3933 21.5022 78.5781C21.7946 78.7617 21.8838 79.1476 21.7019 79.4412L21.6933 79.4547Z" fill="#FA541C"/>
<path fill-rule="evenodd" clip-rule="evenodd" d="M17.813 85.8952L15.9937 89.1881L15.9858 89.2022C15.8101 89.5202 15.4105 89.6349 15.0934 89.4593C14.776 89.2833 14.6612 88.8829 14.8368 88.5649L14.8385 88.562L16.6907 85.2506C16.8657 84.9385 17.2594 84.8275 17.5712 85.0025C17.8817 85.1768 17.9929 85.5696 17.8209 85.881L17.813 85.8952Z" fill="#FA541C"/>
<path fill-rule="evenodd" clip-rule="evenodd" d="M12.6017 95.9057L12.5942 95.9208C12.43 96.2573 12.0248 96.396 11.6893 96.2309C11.3541 96.0665 11.2153 95.6605 11.3798 95.3247L11.3814 95.3211L13.0678 91.9211C13.2316 91.5906 13.6316 91.4558 13.9612 91.6199C14.2898 91.7833 14.4243 92.1817 14.2631 92.5113L12.6017 95.9057Z" fill="#FA541C"/>
<path fill-rule="evenodd" clip-rule="evenodd" d="M11.0353 99.3235L9.55836 102.782L9.5508 102.8C9.39982 103.154 8.99064 103.319 8.63737 103.167C8.28377 103.015 8.11997 102.606 8.27095 102.252L8.27259 102.248L9.78204 98.7629C9.93302 98.4146 10.3369 98.2548 10.6846 98.4061C11.031 98.5567 11.1905 98.9593 11.0425 99.3067L11.0353 99.3235Z" fill="#FA541C"/>
<path fill-rule="evenodd" clip-rule="evenodd" d="M8.17617 106.282L6.89632 109.817L6.88875 109.837C6.75389 110.21 6.3434 110.402 5.97204 110.267C5.60035 110.132 5.40859 109.72 5.54312 109.348L5.54443 109.345L6.8575 105.777C6.99236 105.411 7.39793 105.223 7.7637 105.358C8.12815 105.493 8.31564 105.897 8.18308 106.263L8.17617 106.282Z" fill="#FA541C"/>
<path fill-rule="evenodd" clip-rule="evenodd" d="M5.7288 113.386L4.6792 116.99L4.67196 117.015C4.55815 117.406 4.14995 117.63 3.76018 117.516C3.3704 117.403 3.1464 116.993 3.26021 116.603L3.26087 116.599L4.34369 112.951C4.45816 112.566 4.86208 112.347 5.24593 112.461C5.6288 112.576 5.84721 112.978 5.73571 113.361L5.7288 113.386Z" fill="#FA541C"/>
<path fill-rule="evenodd" clip-rule="evenodd" d="M3.76136 120.63L2.99627 124.296L2.99101 124.323C2.90548 124.73 2.50617 124.993 2.09862 124.907C1.69075 124.822 1.42859 124.425 1.51379 124.017C1.76739 122.772 2.04534 121.532 2.30979 120.289C2.39564 119.886 2.79167 119.629 3.19395 119.715C3.59656 119.801 3.85313 120.198 3.76728 120.601L3.76136 120.63Z" fill="#FA541C"/>
<path fill-rule="evenodd" clip-rule="evenodd" d="M2.38606 127.99L1.94299 131.743C1.89464 132.154 1.52362 132.447 1.1141 132.398C0.704587 132.35 0.41184 131.98 0.460192 131.569L0.899969 127.78C0.947664 127.367 1.32034 127.072 1.73182 127.12C2.14364 127.168 2.43836 127.541 2.39067 127.953L2.39033 127.955L2.38606 127.99Z" fill="#FA541C"/>
<path fill-rule="evenodd" clip-rule="evenodd" d="M1.68923 135.444L1.6264 139.225C1.61949 139.634 1.28333 139.959 0.875139 139.953C0.466944 139.946 0.141638 139.61 0.148545 139.201L0.204793 135.382C0.210714 134.971 0.54819 134.642 0.958359 134.649C1.36853 134.655 1.69613 134.993 1.69021 135.404V135.405L1.68923 135.444Z" fill="#FA541C"/>
<path fill-rule="evenodd" clip-rule="evenodd" d="M1.76561 142.922L2.10968 146.644L2.11362 146.685C2.15079 147.088 1.85476 147.445 1.45248 147.483C1.0502 147.52 0.693966 147.225 0.656797 146.822L0.297935 143.018C0.259451 142.613 0.556146 142.254 0.960399 142.215C1.36465 142.177 1.72351 142.475 1.76167 142.879L1.762 142.881L1.76561 142.922Z" fill="#FA541C"/>
<path fill-rule="evenodd" clip-rule="evenodd" d="M2.66223 150.339L3.42632 153.996L3.43488 154.037C3.51678 154.429 3.26581 154.813 2.87438 154.895C2.48296 154.977 2.09976 154.728 2.01786 154.335L1.22942 150.598C1.14653 150.205 1.39783 149.818 1.79123 149.734C2.1843 149.651 2.57045 149.903 2.65367 150.297L2.654 150.298L2.66223 150.339Z" fill="#FA541C"/>
<path fill-rule="evenodd" clip-rule="evenodd" d="M4.40047 157.6L5.59053 161.186C5.71519 161.562 5.51191 161.969 5.13661 162.093C4.76097 162.218 4.35574 162.016 4.23107 161.64L3.02095 158.018C2.89497 157.639 3.09825 157.231 3.47553 157.104C3.85281 156.978 4.261 157.182 4.38731 157.56L4.40047 157.6Z" fill="#FA541C"/>
<path fill-rule="evenodd" clip-rule="evenodd" d="M6.95314 164.624L8.53232 168.056C8.69613 168.412 8.54088 168.834 8.1853 168.998C7.82973 169.163 7.4087 169.008 7.2449 168.652L5.64269 165.189C5.47691 164.831 5.63249 164.406 5.98971 164.24C6.34692 164.074 6.77059 164.23 6.93637 164.588L6.93669 164.589L6.95314 164.624Z" fill="#FA541C"/>
<path fill-rule="evenodd" clip-rule="evenodd" d="M10.2549 171.331L12.1808 174.579C12.3785 174.913 12.2689 175.344 11.9357 175.543C11.6025 175.741 11.1726 175.633 10.9749 175.298L9.02441 172.023C8.82475 171.688 8.93428 171.254 9.2688 171.054C9.60331 170.854 10.0365 170.964 10.2362 171.299L10.2368 171.301L10.2549 171.331Z" fill="#FA541C"/>
<path fill-rule="evenodd" clip-rule="evenodd" d="M14.2262 177.674L16.4313 180.701L16.4494 180.726C16.6754 181.036 16.6077 181.471 16.2978 181.697C15.9883 181.924 15.5544 181.857 15.3284 181.547L13.0805 178.474C12.8529 178.162 12.9204 177.725 13.2312 177.496C13.542 177.268 13.9789 177.335 14.2068 177.647L14.2078 177.648L14.2262 177.674Z" fill="#FA541C"/>
<path fill-rule="evenodd" clip-rule="evenodd" d="M18.766 183.633L21.2202 186.466L21.2379 186.487C21.4866 186.774 21.4557 187.208 21.1692 187.457C20.8827 187.706 20.4498 187.677 20.2012 187.39L17.7056 184.519C17.4549 184.232 17.4849 183.794 17.7727 183.543C18.0602 183.293 18.4967 183.323 18.747 183.611L18.7479 183.612L18.766 183.633Z" fill="#FA541C"/>
<path fill-rule="evenodd" clip-rule="evenodd" d="M23.783 189.204L26.4407 191.848L26.4571 191.864C26.7236 192.129 26.7249 192.56 26.4608 192.827C26.1963 193.094 25.767 193.096 25.5006 192.832L22.8041 190.159C22.5357 189.894 22.5334 189.461 22.7988 189.192C23.0639 188.923 23.4964 188.92 23.7649 189.186L23.7659 189.187L23.783 189.204Z" fill="#FA541C"/>
<path fill-rule="evenodd" clip-rule="evenodd" d="M29.1889 194.404L32.0161 196.872L32.0315 196.886C32.3111 197.13 32.3404 197.555 32.0963 197.836C31.8526 198.116 31.4292 198.146 31.1493 197.902L28.2863 195.412C28.0044 195.166 27.9742 194.739 28.2189 194.456C28.4636 194.174 28.8902 194.144 29.1721 194.389L29.1731 194.39L29.1889 194.404Z" fill="#FA541C"/>
<path fill-rule="evenodd" clip-rule="evenodd" d="M34.9164 199.255L37.882 201.561L37.8958 201.572C38.1859 201.797 38.2385 202.215 38.0135 202.506C37.7886 202.796 37.3721 202.85 37.082 202.624L34.0839 200.303C33.7918 200.076 33.7378 199.656 33.9638 199.363C34.1895 199.071 34.6092 199.017 34.9012 199.243L34.9022 199.244L34.9164 199.255Z" fill="#FA541C"/>
<path fill-rule="evenodd" clip-rule="evenodd" d="M40.9067 203.793L43.9855 205.95L43.998 205.959C44.2953 206.168 44.368 206.578 44.1598 206.876C43.9519 207.174 43.5434 207.247 43.2457 207.039L40.1373 204.87C39.838 204.661 39.764 204.249 39.9729 203.949C40.1814 203.649 40.5932 203.575 40.8929 203.784L40.8939 203.784L40.9067 203.793Z" fill="#FA541C"/>
<path fill-rule="evenodd" clip-rule="evenodd" d="M47.1137 208.048L50.2613 210.132C50.5613 210.329 50.6451 210.732 50.4484 211.033C50.2517 211.333 49.8481 211.417 49.5478 211.22L46.3917 209.139C46.0904 208.94 46.0069 208.534 46.2052 208.232C46.4036 207.93 46.8088 207.846 47.1101 208.045L47.1137 208.048Z" fill="#FA541C"/>
<path fill-rule="evenodd" clip-rule="evenodd" d="M53.4157 212.206L56.5737 214.273C56.8711 214.467 56.955 214.866 56.7612 215.163C56.5675 215.461 56.1701 215.546 55.8731 215.352L52.7092 213.289C52.4102 213.095 52.3253 212.694 52.52 212.394C52.7148 212.095 53.1147 212.01 53.4137 212.204L53.4157 212.206Z" fill="#FA541C"/>
<path fill-rule="evenodd" clip-rule="evenodd" d="M59.7348 216.34L62.8921 218.409C63.1859 218.601 63.2681 218.995 63.0763 219.289C62.8842 219.583 62.4912 219.666 62.1978 219.473L59.0378 217.412C58.7417 217.22 58.6575 216.824 58.8496 216.527C59.0417 216.231 59.4371 216.147 59.7331 216.339L59.7348 216.34Z" fill="#FA541C"/>
<path fill-rule="evenodd" clip-rule="evenodd" d="M66.0457 220.485L69.1912 222.573C69.48 222.764 69.559 223.154 69.3679 223.444C69.1764 223.733 68.786 223.811 68.4969 223.62L65.352 221.541C65.0602 221.351 64.9783 220.958 65.1691 220.666C65.3595 220.374 65.751 220.292 66.0427 220.483L66.0457 220.485Z" fill="#FA541C"/>
<path fill-rule="evenodd" clip-rule="evenodd" d="M72.324 224.676L75.4452 226.799C75.7284 226.992 75.8021 227.378 75.6096 227.662C75.4175 227.946 75.032 228.019 74.7488 227.827L74.7459 227.825L71.6277 225.712L71.6244 225.71C71.3389 225.516 71.2642 225.128 71.4569 224.842C71.65 224.556 72.0375 224.482 72.323 224.675L72.324 224.676Z" fill="#FA541C"/>
<path fill-rule="evenodd" clip-rule="evenodd" d="M78.5565 228.95L81.6454 231.13C81.9217 231.325 81.9878 231.708 81.7931 231.985C81.5984 232.262 81.2165 232.328 80.9399 232.133L80.9359 232.13L77.8526 229.964L77.8476 229.96C77.5694 229.764 77.5019 229.379 77.6973 229.1C77.8927 228.821 78.2769 228.754 78.5555 228.949L78.5565 228.95Z" fill="#FA541C"/>
<path fill-rule="evenodd" clip-rule="evenodd" d="M84.7062 233.342L87.7438 235.59C88.0125 235.789 88.0691 236.169 87.8704 236.438C87.6721 236.707 87.2935 236.764 87.0248 236.565L87.0192 236.561L83.9901 234.328L83.9839 234.324C83.7132 234.124 83.6549 233.742 83.8543 233.471C84.0536 233.2 84.4345 233.142 84.7052 233.341L84.7062 233.342Z" fill="#FA541C"/>
<path fill-rule="evenodd" clip-rule="evenodd" d="M90.755 237.878L93.7317 240.214C93.9912 240.418 94.037 240.794 93.8334 241.054C93.6301 241.314 93.2545 241.36 92.9949 241.156L92.9883 241.151L90.0215 238.832L90.0146 238.827C89.7527 238.622 89.706 238.243 89.9103 237.981C90.1142 237.719 90.4921 237.672 90.754 237.877L90.755 237.878Z" fill="#FA541C"/>
<path fill-rule="evenodd" clip-rule="evenodd" d="M96.6737 242.587L99.5903 244.989C99.8419 245.196 99.8784 245.569 99.6715 245.821C99.4646 246.073 99.0929 246.109 98.841 245.902L98.8364 245.898L95.9257 243.511L95.9204 243.506C95.6668 243.298 95.6293 242.924 95.8372 242.669C96.0448 242.415 96.4191 242.377 96.6727 242.586L96.6737 242.587Z" fill="#FA541C"/>
<path fill-rule="evenodd" clip-rule="evenodd" d="M102.481 247.435L105.332 249.924C105.574 250.136 105.599 250.505 105.388 250.748C105.177 250.99 104.809 251.015 104.566 250.804L104.559 250.798L101.719 248.327L101.711 248.321C101.467 248.108 101.44 247.737 101.653 247.492C101.865 247.247 102.235 247.221 102.48 247.434L102.481 247.435Z" fill="#FA541C"/>
<path fill-rule="evenodd" clip-rule="evenodd" d="M108.137 252.463L110.891 255.063C111.123 255.282 111.133 255.646 110.915 255.878C110.698 256.109 110.334 256.12 110.103 255.902L110.094 255.894L107.353 253.316L107.344 253.307C107.111 253.088 107.099 252.721 107.318 252.488C107.537 252.255 107.903 252.243 108.136 252.462L108.137 252.463Z" fill="#FA541C"/>
<path fill-rule="evenodd" clip-rule="evenodd" d="M113.586 257.732L116.21 260.469C116.427 260.695 116.42 261.055 116.194 261.273C115.968 261.49 115.608 261.483 115.391 261.256L115.381 261.246L112.773 258.537L112.762 258.526C112.543 258.298 112.55 257.936 112.777 257.716C113.004 257.497 113.366 257.504 113.585 257.731L113.586 257.732Z" fill="#FA541C"/>
<path fill-rule="evenodd" clip-rule="evenodd" d="M118.752 263.282L121.205 266.179C121.405 266.415 121.376 266.769 121.14 266.969C120.904 267.17 120.551 267.141 120.351 266.904L120.339 266.89L117.905 264.028L117.893 264.014C117.691 263.776 117.719 263.42 117.956 263.218C118.193 263.015 118.549 263.044 118.751 263.281L118.752 263.282Z" fill="#FA541C"/>
<path fill-rule="evenodd" clip-rule="evenodd" d="M123.556 269.16L125.787 272.235C125.966 272.482 125.912 272.828 125.665 273.008C125.418 273.187 125.073 273.133 124.893 272.886L124.88 272.868L122.67 269.834L122.656 269.816C122.475 269.567 122.53 269.219 122.778 269.037C123.026 268.856 123.374 268.911 123.555 269.159L123.556 269.16Z" fill="#FA541C"/>
<path fill-rule="evenodd" clip-rule="evenodd" d="M127.885 275.407L129.834 278.672C129.988 278.931 129.904 279.266 129.646 279.421C129.388 279.575 129.053 279.491 128.898 279.232L128.885 279.21L126.957 275.995L126.944 275.972C126.787 275.712 126.871 275.374 127.131 275.218C127.391 275.061 127.728 275.146 127.885 275.407Z" fill="#FA541C"/>
<path fill-rule="evenodd" clip-rule="evenodd" d="M131.616 282.03L133.21 285.485C133.333 285.752 133.217 286.068 132.951 286.191C132.685 286.314 132.371 286.199 132.247 285.934L132.234 285.907L130.647 282.515L130.634 282.488C130.507 282.216 130.624 281.893 130.895 281.767C131.165 281.639 131.487 281.756 131.614 282.027L131.616 282.03Z" fill="#FA541C"/>
<path fill-rule="evenodd" clip-rule="evenodd" d="M134.607 289.029L135.787 292.649C135.875 292.917 135.729 293.206 135.46 293.294C135.194 293.381 134.907 293.236 134.818 292.969L134.808 292.939L133.628 289.386L133.618 289.356C133.527 289.083 133.674 288.787 133.947 288.696C134.22 288.605 134.515 288.753 134.606 289.027L134.607 289.029Z" fill="#FA541C"/>
<path fill-rule="evenodd" clip-rule="evenodd" d="M136.738 296.335L137.456 300.075C137.507 300.342 137.333 300.599 137.068 300.651C136.803 300.701 136.548 300.529 136.495 300.262L136.489 300.233L135.763 296.558L135.757 296.527C135.704 296.255 135.88 295.992 136.151 295.938C136.421 295.885 136.684 296.061 136.738 296.333L136.738 296.335Z" fill="#FA541C"/>
<path fill-rule="evenodd" clip-rule="evenodd" d="M137.935 303.852L138.168 307.655C138.184 307.915 137.988 308.139 137.73 308.152C137.472 308.169 137.25 307.974 137.233 307.717L137.231 307.688L136.979 303.915C136.961 303.651 137.161 303.42 137.425 303.404C137.689 303.387 137.917 303.585 137.935 303.852Z" fill="#FA541C"/>
<path fill-rule="evenodd" clip-rule="evenodd" d="M138.139 311.47L137.863 315.26C137.845 315.507 137.63 315.692 137.384 315.675C137.138 315.659 136.953 315.445 136.969 315.197L136.971 315.174L137.223 311.431L137.225 311.408C137.242 311.154 137.46 310.963 137.713 310.979C137.965 310.996 138.156 311.217 138.139 311.467L138.139 311.47Z" fill="#FA541C"/>
<path fill-rule="evenodd" clip-rule="evenodd" d="M137.41 319.03L136.792 322.777C136.754 323.011 136.534 323.169 136.302 323.129C136.07 323.09 135.912 322.872 135.949 322.642L135.952 322.622L136.543 318.908L136.546 318.889C136.584 318.651 136.808 318.487 137.047 318.526C137.285 318.566 137.448 318.79 137.41 319.027L137.41 319.03Z" fill="#FA541C"/>
<path fill-rule="evenodd" clip-rule="evenodd" d="M136.008 326.494L135.045 330.171C134.988 330.389 134.766 330.517 134.549 330.461C134.333 330.405 134.203 330.184 134.259 329.967L134.264 329.944L135.196 326.306L135.202 326.286C135.259 326.062 135.486 325.927 135.709 325.983C135.932 326.042 136.065 326.27 136.008 326.494Z" fill="#FA541C"/>
<path fill-rule="evenodd" clip-rule="evenodd" d="M133.873 333.789L132.444 337.322C132.364 337.516 132.14 337.612 131.943 337.533C131.746 337.454 131.651 337.23 131.73 337.032L133.128 333.523L133.139 333.493C133.22 333.289 133.45 333.19 133.653 333.272C133.856 333.355 133.955 333.585 133.874 333.786L133.873 333.789Z" fill="#FA541C"/>
<path fill-rule="evenodd" clip-rule="evenodd" d="M130.692 340.714C130.044 341.811 129.327 342.872 128.517 343.867C128.39 344.022 128.16 344.045 128.004 343.92C127.848 343.791 127.825 343.564 127.951 343.406C128.727 342.444 129.419 341.409 130.046 340.335C130.15 340.153 130.379 340.094 130.558 340.2C130.738 340.302 130.798 340.532 130.694 340.714H130.692Z" fill="#FA541C"/>
<path fill-rule="evenodd" clip-rule="evenodd" d="M125.787 346.582C124.773 347.379 123.643 348.045 122.425 348.499C122.247 348.565 122.049 348.473 121.983 348.295C121.917 348.117 122.007 347.919 122.184 347.853C123.325 347.422 124.388 346.789 125.349 346.025C125.502 345.903 125.725 345.929 125.846 346.081C125.968 346.235 125.942 346.46 125.789 346.582H125.787Z" fill="#FA541C"/>
</g>
</g>
<defs>
<clipPath id="clip0_966_40986">
<rect width="640" height="481.103" fill="white" transform="translate(0 0.064209)"/>
</clipPath>
</defs>
</svg>
